<?xml version="1.0" encoding="utf-8"?>
<!-- Generator: Adobe Illustrator 17.0.0, SVG Export Plug-In . SVG Version: 6.00 Build 0)  -->
<!DOCTYPE svg PUBLIC "-//W3C//DTD SVG 1.1//EN" "http://www.w3.org/Graphics/SVG/1.1/DTD/svg11.dtd">
<svg version="1.1" id="Capa_1" xmlns="http://www.w3.org/2000/svg" xmlns:xlink="http://www.w3.org/1999/xlink" x="0px" y="0px"
	 width="841.89px" height="595.28px" viewBox="0 0 841.89 595.28" enable-background="new 0 0 841.89 595.28" xml:space="preserve">
<g>
	<g>
		<defs>
			<rect id="SVGID_1_" x="203.36" y="90.844" width="425.076" height="425.076"/>
		</defs>
		<clipPath id="SVGID_2_">
			<use xlink:href="#SVGID_1_"  overflow="visible"/>
		</clipPath>
		<path clip-path="url(#SVGID_2_)" fill="#435463" stroke="#FFFFFF" stroke-miterlimit="10" d="M415.899,511.896
			c115.145,0,208.513-93.353,208.513-208.514c0-115.146-93.368-208.513-208.513-208.513c-115.162,0-208.514,93.367-208.514,208.513
			C207.386,418.543,300.738,511.896,415.899,511.896"/>
	</g>
</g>
<polygon fill="#FFFFFF" stroke="#FFFFFF" stroke-width="5" stroke-miterlimit="10" points="281.759,391.592 312.931,339.312 
	341.911,382.283 "/>
<polygon fill="none" stroke="#FAFAF1" stroke-width="0.5" points="281.759,391.592 312.931,339.312 341.911,382.283 "/>
<polygon fill="#FFFFFF" stroke="#FFFFFF" stroke-width="5" stroke-miterlimit="10" points="503.369,210.722 535.212,189.244 
	564.315,232.405 532.474,253.883 "/>
<polygon fill="none" stroke="#FAFAF1" stroke-width="0.5" points="503.369,210.722 535.212,189.244 564.315,232.405 
	532.474,253.883 "/>
<polygon fill="#FFFFFF" stroke="#FFFFFF" stroke-width="5" stroke-miterlimit="10" points="332.696,325.836 483.354,224.212 
	512.457,267.374 361.8,368.997 "/>
<polygon fill="none" stroke="#FAFAF1" stroke-width="0.5" points="332.696,325.836 483.354,224.212 512.457,267.374 361.8,368.997 
	"/>
</svg>
