<?xml version="1.0" encoding="utf-8"?>
<!-- Generator: Adobe Illustrator 16.0.0, SVG Export Plug-In . SVG Version: 6.00 Build 0)  -->
<!DOCTYPE svg PUBLIC "-//W3C//DTD SVG 1.1//EN" "http://www.w3.org/Graphics/SVG/1.1/DTD/svg11.dtd">
<svg version="1.1" id="Capa_1" xmlns="http://www.w3.org/2000/svg" xmlns:xlink="http://www.w3.org/1999/xlink" x="0px" y="0px"
	 width="841.89px" height="595.28px" viewBox="0 0 841.89 595.28" enable-background="new 0 0 841.89 595.28" xml:space="preserve">
<g>
	<defs>
		<rect id="SVGID_1_" x="203" y="79.469" width="436.811" height="436.811"/>
	</defs>
	<clipPath id="SVGID_2_">
		<use xlink:href="#SVGID_1_"  overflow="visible"/>
	</clipPath>
	<path clip-path="url(#SVGID_2_)" fill="#435463" d="M421.405,513.78c119.241,0,215.906-96.664,215.906-215.906
		c0-119.241-96.665-215.905-215.906-215.905c-119.241,0-215.906,96.664-215.906,215.905
		C205.5,417.116,302.165,513.78,421.405,513.78"/>
	<circle clip-path="url(#SVGID_2_)" fill="none" stroke="#FFFFFF" stroke-width="5" cx="421.405" cy="297.875" r="215.906"/>
</g>
<polygon fill="#FFFFFF" points="429.688,151.371 399.625,151.371 399.625,279.754 272.01,279.754 272.01,315.382 399.625,315.382 
	399.625,444.379 429.688,444.379 429.688,315.382 570.801,315.382 570.801,279.754 429.688,279.754 "/>
<polygon fill="none" stroke="#FFFFFF" stroke-width="0.9" points="429.688,151.371 399.625,151.371 399.625,279.754 272.01,279.754 
	272.01,315.382 399.625,315.382 399.625,444.379 429.688,444.379 429.688,315.382 570.801,315.382 570.801,279.754 429.688,279.754 
	"/>
</svg>
