<?xml version="1.0" encoding="utf-8"?>
<!-- Generator: Adobe Illustrator 16.0.0, SVG Export Plug-In . SVG Version: 6.00 Build 0)  -->
<!DOCTYPE svg PUBLIC "-//W3C//DTD SVG 1.1//EN" "http://www.w3.org/Graphics/SVG/1.1/DTD/svg11.dtd">
<svg version="1.1" id="Capa_1" xmlns="http://www.w3.org/2000/svg" xmlns:xlink="http://www.w3.org/1999/xlink" x="0px" y="0px"
	 width="841.89px" height="595.28px" viewBox="0 0 841.89 595.28" enable-background="new 0 0 841.89 595.28" xml:space="preserve">
<g>
	<defs>
		<rect id="SVGID_1_" x="228.035" y="72.945" width="365.515" height="460.543"/>
	</defs>
	<clipPath id="SVGID_2_">
		<use xlink:href="#SVGID_1_"  overflow="visible"/>
	</clipPath>
	<path clip-path="url(#SVGID_2_)" fill="none" stroke="#435463" stroke-width="14" d="M388.862,83.899c0,0-65.792,0-65.792,65.799
		v116.966c0,0,0,65.784,65.792,65.784h43.875c0,0,65.783,0,65.783-65.784V149.698c0,0,0-65.799-65.783-65.799H388.862z"/>
	<path clip-path="url(#SVGID_2_)" fill="#FFFFFF" d="M246.311,164.313c0,0-7.315,0-7.315,7.322v343.578c0,0,0,7.309,7.315,7.309
		h328.961c0,0,7.324,0,7.324-7.309V171.635c0,0,0-7.322-7.324-7.322H246.311z"/>
	<path clip-path="url(#SVGID_2_)" fill="none" stroke="#435463" stroke-width="14" d="M246.311,164.313c0,0-7.315,0-7.315,7.322
		v343.578c0,0,0,7.309,7.315,7.309h328.961c0,0,7.324,0,7.324-7.309V171.635c0,0,0-7.322-7.324-7.322H246.311z"/>
</g>
<g>
	<path fill="#4A4441" d="M370.661,257.34h-17.733v54.914h-7.196V257.34h-17.69v-6.511h42.62V257.34z"/>
	<path fill="#4A4441" d="M401.542,312.254h-7.024V305.4h-0.171c-3.056,5.254-7.554,7.881-13.493,7.881
		c-4.369,0-7.789-1.156-10.259-3.469c-2.47-2.314-3.705-5.383-3.705-9.211c0-8.195,4.826-12.963,14.478-14.306l13.15-1.842
		c0-7.453-3.013-11.18-9.038-11.18c-5.284,0-10.052,1.8-14.307,5.397v-7.196c4.312-2.741,9.28-4.112,14.906-4.112
		c10.308,0,15.463,5.455,15.463,16.363V312.254z M394.518,290.065l-10.58,1.457c-3.255,0.457-5.712,1.264-7.368,2.42
		c-1.657,1.156-2.484,3.206-2.484,6.146c0,2.143,0.764,3.893,2.292,5.248c1.527,1.355,3.562,2.035,6.104,2.035
		c3.483,0,6.361-1.221,8.631-3.664c2.271-2.441,3.406-5.532,3.406-9.273V290.065z"/>
	<path fill="#4A4441" d="M451.188,312.254h-9.852l-19.362-21.075h-0.171v21.075h-7.025v-64.937h7.025v41.163h0.171l18.418-20.089
		h9.209l-20.346,21.16L451.188,312.254z"/>
	<path fill="#4A4441" d="M491.882,292.079h-30.97c0.114,4.883,1.428,8.652,3.941,11.308c2.512,2.656,5.968,3.984,10.365,3.984
		c4.94,0,9.48-1.629,13.622-4.885v6.598c-3.855,2.799-8.953,4.197-15.292,4.197c-6.197,0-11.066-1.992-14.606-5.975
		c-3.541-3.984-5.312-9.588-5.312-16.813c0-6.825,1.934-12.386,5.804-16.684c3.869-4.298,8.674-6.447,14.414-6.447
		c5.739,0,10.18,1.856,13.321,5.568c3.141,3.713,4.712,8.867,4.712,15.464V292.079z M484.686,286.125
		c-0.029-4.055-1.007-7.21-2.935-9.467c-1.927-2.255-4.604-3.384-8.031-3.384c-3.313,0-6.125,1.186-8.438,3.556
		c-2.313,2.37-3.741,5.469-4.283,9.295H484.686z"/>
</g>
<g>
	<path fill="#4A4441" d="M351.73,417.512h-7.024v-6.854h-0.171c-3.056,5.256-7.554,7.883-13.493,7.883
		c-4.369,0-7.789-1.158-10.259-3.471c-2.47-2.313-3.705-5.383-3.705-9.209c0-8.195,4.826-12.965,14.478-14.307l13.15-1.842
		c0-7.453-3.013-11.18-9.038-11.18c-5.284,0-10.052,1.799-14.307,5.396v-7.195c4.312-2.742,9.28-4.113,14.906-4.113
		c10.308,0,15.463,5.455,15.463,16.363V417.512z M344.706,395.324l-10.58,1.457c-3.255,0.457-5.712,1.264-7.368,2.42
		c-1.657,1.156-2.484,3.205-2.484,6.146c0,2.141,0.764,3.891,2.292,5.246c1.527,1.357,3.562,2.035,6.104,2.035
		c3.483,0,6.361-1.221,8.631-3.662c2.271-2.441,3.406-5.533,3.406-9.273V395.324z"/>
	<path fill="#4A4441" d="M420.223,373.65l-13.15,43.861h-7.282l-9.038-31.396c-0.342-1.199-0.571-2.557-0.685-4.07h-0.171
		c-0.085,1.029-0.386,2.355-0.899,3.984l-9.809,31.482h-7.025l-13.279-43.861h7.368l9.081,32.982c0.285,1,0.485,2.313,0.6,3.939
		h0.343c0.085-1.256,0.342-2.598,0.771-4.025l10.109-32.896h6.425l9.081,33.068c0.285,1.057,0.499,2.369,0.643,3.939h0.343
		c0.057-1.113,0.3-2.426,0.728-3.939l8.91-33.068H420.223z"/>
	<path fill="#4A4441" d="M459.758,417.512h-7.023v-6.854h-0.172c-3.057,5.256-7.554,7.883-13.493,7.883
		c-4.368,0-7.789-1.158-10.259-3.471c-2.471-2.313-3.705-5.383-3.705-9.209c0-8.195,4.826-12.965,14.479-14.307l13.15-1.842
		c0-7.453-3.014-11.18-9.039-11.18c-5.283,0-10.052,1.799-14.307,5.396v-7.195c4.313-2.742,9.281-4.113,14.906-4.113
		c10.309,0,15.463,5.455,15.463,16.363V417.512z M452.734,395.324l-10.58,1.457c-3.256,0.457-5.713,1.264-7.368,2.42
		c-1.657,1.156-2.484,3.205-2.484,6.146c0,2.141,0.764,3.891,2.292,5.246c1.527,1.357,3.562,2.035,6.104,2.035
		c3.483,0,6.361-1.221,8.631-3.662c2.271-2.441,3.406-5.533,3.406-9.273V395.324z"/>
	<path fill="#4A4441" d="M507.904,373.65l-20.175,50.887c-3.599,9.08-8.652,13.621-15.163,13.621c-1.828,0-3.356-0.186-4.584-0.557
		v-6.297c1.514,0.514,2.898,0.771,4.155,0.771c3.54,0,6.196-2.113,7.967-6.34l3.513-8.311l-17.134-43.775h7.796l11.865,33.754
		c0.143,0.428,0.442,1.541,0.899,3.34h0.257c0.143-0.686,0.429-1.77,0.856-3.256l12.465-33.838H507.904z"/>
</g>
</svg>
