<?xml version="1.0" encoding="utf-8"?>
<!-- Generator: Adobe Illustrator 17.0.0, SVG Export Plug-In . SVG Version: 6.00 Build 0)  -->
<!DOCTYPE svg PUBLIC "-//W3C//DTD SVG 1.1//EN" "http://www.w3.org/Graphics/SVG/1.1/DTD/svg11.dtd">
<svg version="1.1" id="Capa_1" xmlns="http://www.w3.org/2000/svg" xmlns:xlink="http://www.w3.org/1999/xlink" x="0px" y="0px"
	 width="478px" height="481px" viewBox="0 0 478 481" enable-background="new 0 0 478 481" xml:space="preserve">
<g>
	<path display="none" fill="none" d="M428.114,519.797c126.276,0,228.631-102.354,228.631-228.626S554.391,62.535,428.114,62.535
		c-126.273,0-228.631,102.363-228.631,228.636S301.841,519.797,428.114,519.797"/>
</g>
<g>
	<path fill="none" stroke="#29A6E5" stroke-width="11" stroke-miterlimit="10" d="M265.984,162.279"/>
	<path fill="none" stroke="#29A6E5" stroke-width="11" stroke-miterlimit="10" d="M178.012,114.064"/>
	<path fill="none" stroke="#FFFFFF" stroke-width="19" stroke-miterlimit="10" d="M168.99,166.227v-22.354
		c0-4.94,7-8.944,15.635-8.944h108.537c8.635,0,15.635,4.005,15.635,8.944v22.354"/>
	<path fill="none" stroke="#FFFFFF" stroke-width="18" stroke-miterlimit="10" d="M172.867,162.279H82.164
		c-5.722,0-10.36,4.419-10.36,9.87V359.13c0,5.451,4.638,9.87,10.36,9.87h319.425c5.721,0,10.36-4.419,10.36-9.87V172.149
		c0-5.451-4.638-9.87-10.36-9.87h-95.001"/>
	<path fill="none" stroke="#29A6E5" stroke-width="11" stroke-miterlimit="10" d="M168.99,162.279"/>
	<circle fill="none" stroke="#FFFFFF" stroke-width="18" stroke-miterlimit="10" cx="239.013" cy="257.16" r="72.747"/>
</g>
</svg>
