<?xml version="1.0" encoding="utf-8"?>
<!-- Generator: Adobe Illustrator 16.0.0, SVG Export Plug-In . SVG Version: 6.00 Build 0)  -->
<!DOCTYPE svg PUBLIC "-//W3C//DTD SVG 1.1//EN" "http://www.w3.org/Graphics/SVG/1.1/DTD/svg11.dtd">
<svg version="1.1" id="Capa_1" xmlns="http://www.w3.org/2000/svg" xmlns:xlink="http://www.w3.org/1999/xlink" x="0px" y="0px"
	 width="841.89px" height="595.281px" viewBox="0 0 841.89 595.281" enable-background="new 0 0 841.89 595.281"
	 xml:space="preserve">
<g>
	<g>
		<g>
			<defs>
				<rect id="SVGID_1_" x="120.065" y="23.14" width="607.001" height="554.141"/>
			</defs>
			<clipPath id="SVGID_2_">
				<use xlink:href="#SVGID_1_"  overflow="visible"/>
			</clipPath>
			<path clip-path="url(#SVGID_2_)" fill="none" stroke="#435463" stroke-width="16" d="M609.865,385.155v-150.92
				c0,0,0-162.548-162.547-162.548h-54.197c0,0-162.547,0-162.547,162.548v41.576v93.893c0,84.502-43.944,125.086-76.935,146.779
				c9.208,2.223,533.161,0,533.161,0s-76.936-62.277-76.936-146.779V276.79"/>
		</g>
	</g>
	<g>
		<g>
			<defs>
				<rect id="SVGID_3_" x="120.065" y="23.14" width="607.001" height="554.141"/>
			</defs>
			<clipPath id="SVGID_4_">
				<use xlink:href="#SVGID_3_"  overflow="visible"/>
			</clipPath>
			<path clip-path="url(#SVGID_4_)" fill="none" stroke="#435463" stroke-width="16" d="M367.406,521.722
				c5.53,24.075,27.064,42.013,52.807,42.013c25.146,0,46.259-17.145,52.396-40.317"/>
		</g>
	</g>
	<g>
		<g>
			<defs>
				<rect id="SVGID_5_" x="120.065" y="23.14" width="607.001" height="554.141"/>
			</defs>
			<clipPath id="SVGID_6_">
				<use xlink:href="#SVGID_5_"  overflow="visible"/>
			</clipPath>
			<path clip-path="url(#SVGID_6_)" fill="none" stroke="#435463" stroke-width="16" d="M466.312,73.368
				c-2.012-20.57-19.365-36.656-40.465-36.656c-20.186,0-36.959,14.737-40.094,34.049"/>
		</g>
	</g>
</g>
</svg>
