<?xml version="1.0" encoding="utf-8"?>
<!-- Generator: Adobe Illustrator 16.0.0, SVG Export Plug-In . SVG Version: 6.00 Build 0)  -->
<!DOCTYPE svg PUBLIC "-//W3C//DTD SVG 1.1//EN" "http://www.w3.org/Graphics/SVG/1.1/DTD/svg11.dtd">
<svg version="1.1" id="Capa_1" xmlns="http://www.w3.org/2000/svg" xmlns:xlink="http://www.w3.org/1999/xlink" x="0px" y="0px"
	 width="841.89px" height="595.28px" viewBox="0 0 841.89 595.28" enable-background="new 0 0 841.89 595.28" xml:space="preserve">
<g>
	<defs>
		<rect id="SVGID_1_" x="250" y="59.462" width="342.736" height="463.818"/>
	</defs>
	<clipPath id="SVGID_2_">
		<use xlink:href="#SVGID_1_"  overflow="visible"/>
	</clipPath>
	<path clip-path="url(#SVGID_2_)" fill="none" stroke="#435463" stroke-width="11.527" d="M471.266,384.343
		c0,0,55.172-19.812,6.281-112.563l-82.75-157.03c0,0-13.062-24.75-39.406-15.313l-28.812,10.344c0,0-55.172,19.812-6.266,112.593
		l69.219,131.344c0,0,26.562,50.406,80.218,31.156L471.266,384.343z"/>
	<path clip-path="url(#SVGID_2_)" fill="none" stroke="#435463" stroke-width="11.527" d="M532.813,509.78
		c0,0,88.219-31.812,39.469-124.625L419.063,93.28c0,0-20.906-39.875-63.25-24.562l-45.906,16.437c0,0-88.219,31.813-39.469,124.688
		l131.375,250.249c0,0,42.75,81.438,129.313,50.25L532.813,509.78z"/>
</g>
</svg>
