<?xml version="1.0" encoding="utf-8"?>
<!-- Generator: Adobe Illustrator 16.0.0, SVG Export Plug-In . SVG Version: 6.00 Build 0)  -->
<!DOCTYPE svg PUBLIC "-//W3C//DTD SVG 1.1//EN" "http://www.w3.org/Graphics/SVG/1.1/DTD/svg11.dtd">
<svg version="1.1" id="Capa_1" xmlns="http://www.w3.org/2000/svg" xmlns:xlink="http://www.w3.org/1999/xlink" x="0px" y="0px"
	 width="841.89px" height="595.28px" viewBox="0 0 841.89 595.28" enable-background="new 0 0 841.89 595.28" xml:space="preserve">
<g>
	<defs>
		<rect id="SVGID_1_" x="205" y="159.888" width="432.228" height="275.393"/>
	</defs>
	<clipPath id="SVGID_2_">
		<use xlink:href="#SVGID_1_"  overflow="visible"/>
	</clipPath>
	<path clip-path="url(#SVGID_2_)" fill="none" stroke="#435463" stroke-width="15" d="M475.535,167.388H366.693
		c0,0-24.187,0-24.187,24.188v1.307 M499.706,193.718l0.017-2.143c0,0,0-24.188-24.188-24.188H366.693c0,0-24.187,0-24.187,24.188
		l0.211,1.725l-93.936,0.418c0,0-36.281,0-36.281,36.281v161.5c0,0,0,36.28,36.281,36.28h344.667c0,0,36.28,0,36.28-36.28v-161.5
		c0,0,0-36.281-36.28-36.281H499.706z"/>
	<circle clip-path="url(#SVGID_2_)" fill="none" stroke="#435463" stroke-width="12" cx="421.114" cy="297.584" r="80.12"/>
</g>
</svg>
