<?xml version="1.0" encoding="utf-8"?>
<!-- Generator: Adobe Illustrator 16.0.0, SVG Export Plug-In . SVG Version: 6.00 Build 0)  -->
<!DOCTYPE svg PUBLIC "-//W3C//DTD SVG 1.1//EN" "http://www.w3.org/Graphics/SVG/1.1/DTD/svg11.dtd">
<svg version="1.1" id="Capa_1" xmlns="http://www.w3.org/2000/svg" xmlns:xlink="http://www.w3.org/1999/xlink" x="0px" y="0px"
	 width="841.89px" height="595.28px" viewBox="0 0 841.89 595.28" enable-background="new 0 0 841.89 595.28" xml:space="preserve">
<g>
	<defs>
		<rect id="SVGID_1_" x="236" y="36.616" width="321.26" height="522.047"/>
	</defs>
	<clipPath id="SVGID_2_">
		<use xlink:href="#SVGID_1_"  overflow="visible"/>
	</clipPath>
	<path clip-path="url(#SVGID_2_)" fill="#435463" d="M557.26,478.7c-33.111,20.432-65.052,30.646-95.814,30.646
		c-65.289,0-106.381-42.976-123.291-128.927h177.539v-49.315H332.519c-1.646-20.195-1.53-41.919,0.353-65.168h182.822v-49.316
		H340.621c9.158-39.921,25.186-71.685,48.082-95.286c22.897-23.602,49.02-35.402,78.379-35.402c33.343,0,63.406,9.158,90.178,27.476
		V56.342c-25.363-13.149-54.132-19.727-86.303-19.727c-47.44,0-87.773,15.913-121.002,47.731
		c-33.233,31.825-55.832,75.912-67.809,132.274H236v49.316h38.749c-1.409,14.09-2.114,26.771-2.114,38.044
		c0,10.804,0.468,19.847,1.409,27.124H236v49.315h42.623c19.254,118.832,79.021,178.243,179.3,178.243
		c34.989,0,68.103-8.686,99.337-26.066V478.7z"/>
</g>
</svg>
