<?xml version="1.0" encoding="utf-8"?>
<!-- Generator: Adobe Illustrator 16.0.0, SVG Export Plug-In . SVG Version: 6.00 Build 0)  -->
<!DOCTYPE svg PUBLIC "-//W3C//DTD SVG 1.1//EN" "http://www.w3.org/Graphics/SVG/1.1/DTD/svg11.dtd">
<svg version="1.1" id="Capa_1" xmlns="http://www.w3.org/2000/svg" xmlns:xlink="http://www.w3.org/1999/xlink" x="0px" y="0px"
	 width="841.89px" height="595.28px" viewBox="0 0 841.89 595.28" enable-background="new 0 0 841.89 595.28" xml:space="preserve">
<g>
	<defs>
		<rect id="SVGID_1_" x="158.462" y="70.436" width="514.56" height="463.925"/>
	</defs>
	<clipPath id="SVGID_2_">
		<use xlink:href="#SVGID_1_"  overflow="visible"/>
	</clipPath>
	
		<line clip-path="url(#SVGID_2_)" fill="none" stroke="#435463" stroke-width="40" x1="226.613" y1="337.492" x2="570.771" y2="146.712"/>
	
		<line clip-path="url(#SVGID_2_)" fill="none" stroke="#435463" stroke-width="40" x1="235.267" y1="343.563" x2="612.718" y2="473.529"/>
	<path clip-path="url(#SVGID_2_)" fill="#435463" d="M207.833,402.99c36.181,10.374,73.897-10.529,84.271-46.701
		c10.372-36.19-10.531-73.908-46.712-84.298c-36.173-10.372-73.899,10.548-84.271,46.721
		C150.74,354.884,171.652,392.618,207.833,402.99"/>
	<path clip-path="url(#SVGID_2_)" fill="#435463" d="M538.266,204.085c36.19,10.373,73.89-10.53,84.28-46.702
		c10.355-36.19-10.53-73.908-46.721-84.297c-36.173-10.373-73.89,10.548-84.28,46.721
		C481.155,155.979,502.075,193.713,538.266,204.085"/>
	<path clip-path="url(#SVGID_2_)" fill="#435463" d="M586.074,531.711c36.19,10.354,73.909-10.548,84.281-46.722
		c10.372-36.173-10.531-73.906-46.721-84.279c-36.156-10.373-73.891,10.549-84.264,46.72
		C528.998,483.586,549.903,521.338,586.074,531.711"/>
</g>
</svg>
