<?xml version="1.0" encoding="utf-8"?>
<!-- Generator: Adobe Illustrator 16.0.0, SVG Export Plug-In . SVG Version: 6.00 Build 0)  -->
<!DOCTYPE svg PUBLIC "-//W3C//DTD SVG 1.1//EN" "http://www.w3.org/Graphics/SVG/1.1/DTD/svg11.dtd">
<svg version="1.1" id="Capa_1" xmlns="http://www.w3.org/2000/svg" xmlns:xlink="http://www.w3.org/1999/xlink" x="0px" y="0px"
	 width="841.89px" height="595.28px" viewBox="0 0 841.89 595.28" enable-background="new 0 0 841.89 595.28" xml:space="preserve">
<g>
	<defs>
		<rect id="SVGID_1_" x="131.251" y="86.762" width="595.589" height="410.33"/>
	</defs>
	<clipPath id="SVGID_2_">
		<use xlink:href="#SVGID_1_"  overflow="visible"/>
	</clipPath>
	<path clip-path="url(#SVGID_2_)" fill="#435463" d="M422.344,437.191c-80.115,0-145.266-65.16-145.266-145.273
		c0-80.078,65.151-145.238,145.266-145.238c80.095,0,145.254,65.16,145.254,145.238
		C567.598,372.031,502.438,437.191,422.344,437.191 M422.344,137.726c-85.03,0-154.202,69.171-154.202,154.192
		c0,85.039,69.172,154.209,154.202,154.209c85.02,0,154.192-69.17,154.192-154.209C576.536,206.896,507.363,137.726,422.344,137.726
		 M561.09,430.682c-37.048,37.049-86.341,57.471-138.746,57.471c-52.425,0-101.69-20.422-138.766-57.471
		c-37.057-37.064-57.462-86.34-57.462-138.764c0-52.406,20.405-101.68,57.462-138.747c37.076-37.048,86.341-57.455,138.766-57.455
		c52.405,0,101.698,20.407,138.746,57.455c37.048,37.067,57.454,86.341,57.454,138.747
		C618.544,344.342,598.138,393.617,561.09,430.682 M567.404,146.855c-38.754-38.754-90.264-60.093-145.061-60.093
		c-54.799,0-106.344,21.339-145.088,60.093c-38.747,38.755-60.076,90.264-60.076,145.063c0,54.797,21.329,106.344,60.076,145.098
		c38.745,38.736,90.289,60.076,145.088,60.076c54.797,0,106.307-21.34,145.061-60.076c38.755-38.754,60.111-90.301,60.111-145.098
		C627.516,237.12,606.159,185.61,567.404,146.855"/>
	<path clip-path="url(#SVGID_2_)" fill="#435463" d="M717.885,345.414h-21.551h-9.831V196.852c0-33.812,11.063-66.462,31.382-93.166
		V345.414z M717.885,479.621c0,4.697-3.835,8.531-8.531,8.531c-4.715,0-8.549-3.834-8.549-8.531v-125.27h17.08V479.621z
		 M726.822,91.23c0-1.847-1.145-3.519-2.886-4.169c-1.742-0.667-3.693-0.193-4.907,1.197
		c-26.74,29.906-41.446,68.468-41.446,108.594v153.031c0,2.463,1.986,4.469,4.45,4.469h9.833v125.27
		c0,9.623,7.847,17.471,17.487,17.471s17.469-7.848,17.469-17.471V349.883V91.23z"/>
	<path clip-path="url(#SVGID_2_)" fill="#435463" d="M172.855,479.621c0,4.697-3.817,8.531-8.514,8.531
		c-4.724,0-8.541-3.834-8.541-8.531V196.253h17.055V479.621z M192.945,86.762c-2.471,0-4.468,2.005-4.468,4.468v85.392
		c0,5.892-4.812,10.696-10.696,10.696h-0.44h-8.531V91.23c0-2.463-2.005-4.468-4.468-4.468c-2.473,0-4.469,2.005-4.469,4.468v96.088
		h-8.54H150.9c-5.91,0-10.704-4.804-10.704-10.696V91.23c0-2.463-1.997-4.468-4.485-4.468c-2.463,0-4.46,2.005-4.46,4.468v85.392
		c0,9.429,6.694,17.344,15.613,19.209v283.79c0,9.623,7.838,17.471,17.478,17.471c9.631,0,17.469-7.848,17.469-17.471v-283.79
		c8.9-1.865,15.602-9.78,15.602-19.209V91.23C197.413,88.767,195.418,86.762,192.945,86.762"/>
</g>
</svg>
