<?xml version="1.0" encoding="utf-8"?>
<!-- Generator: Adobe Illustrator 16.0.0, SVG Export Plug-In . SVG Version: 6.00 Build 0)  -->
<!DOCTYPE svg PUBLIC "-//W3C//DTD SVG 1.1//EN" "http://www.w3.org/Graphics/SVG/1.1/DTD/svg11.dtd">
<svg version="1.1" id="Capa_1" xmlns="http://www.w3.org/2000/svg" xmlns:xlink="http://www.w3.org/1999/xlink" x="0px" y="0px"
	 width="841.89px" height="595.28px" viewBox="0 0 841.89 595.28" enable-background="new 0 0 841.89 595.28" xml:space="preserve">
<g>
	<defs>
		<rect id="SVGID_1_" x="185" y="174.023" width="472.436" height="246.257"/>
	</defs>
	<clipPath id="SVGID_2_">
		<use xlink:href="#SVGID_1_"  overflow="visible"/>
	</clipPath>
	<path clip-path="url(#SVGID_2_)" fill="none" stroke="#435463" stroke-width="16.217" d="M432.721,420.28v-80.52
		c0,0,0-43.785-43.786-43.785h-17.514c0,0-43.786,0-43.786,43.785v80.52"/>
	<circle clip-path="url(#SVGID_2_)" fill="none" stroke="#435463" stroke-width="16.217" cx="380.178" cy="230.296" r="48.164"/>
	<path clip-path="url(#SVGID_2_)" fill="none" stroke="#435463" stroke-width="16.217" d="M298.195,420.28v-80.52
		c0,0,0-43.785-43.786-43.785h-17.514c0,0-43.786,0-43.786,43.785v80.52"/>
	<circle clip-path="url(#SVGID_2_)" fill="none" stroke="#435463" stroke-width="16.217" cx="245.651" cy="230.296" r="48.164"/>
	<path clip-path="url(#SVGID_2_)" fill="none" stroke="#435463" stroke-width="12.974" d="M560.09,395.198v-64.414
		c0,0,0-35.029-35.029-35.029h-14.012c0,0-35.028,0-35.028,35.029v64.412"/>
	<circle clip-path="url(#SVGID_2_)" fill="none" stroke="#435463" stroke-width="12.974" cx="518.055" cy="243.212" r="38.531"/>
	<path clip-path="url(#SVGID_2_)" fill="none" stroke="#435463" stroke-width="9.944" d="M652.464,414.065V364.69
		c0,0,0-26.848-26.851-26.848h-10.739c0,0-26.85,0-26.85,26.848v49.373"/>
	<circle clip-path="url(#SVGID_2_)" fill="none" stroke="#435463" stroke-width="9.944" cx="620.244" cy="297.568" r="29.534"/>
</g>
<g>
	<defs>
		<rect id="SVGID_3_" x="185" y="174.023" width="472.436" height="246.257"/>
	</defs>
	<clipPath id="SVGID_4_">
		<use xlink:href="#SVGID_3_"  overflow="visible"/>
	</clipPath>
	<path clip-path="url(#SVGID_4_)" fill="none" stroke="#435463" stroke-width="16.217" d="M432.721,420.28v-80.52
		c0,0,0-43.785-43.786-43.785h-17.514c0,0-43.786,0-43.786,43.785v80.52"/>
	<circle clip-path="url(#SVGID_4_)" fill="none" stroke="#435463" stroke-width="16.217" cx="380.178" cy="230.296" r="48.164"/>
	<path clip-path="url(#SVGID_4_)" fill="none" stroke="#435463" stroke-width="16.217" d="M298.195,420.28v-80.52
		c0,0,0-43.785-43.786-43.785h-17.514c0,0-43.786,0-43.786,43.785v80.52"/>
	<circle clip-path="url(#SVGID_4_)" fill="none" stroke="#435463" stroke-width="16.217" cx="245.651" cy="230.296" r="48.164"/>
	<path clip-path="url(#SVGID_4_)" fill="none" stroke="#435463" stroke-width="12.974" d="M560.09,395.198v-64.414
		c0,0,0-35.029-35.029-35.029h-14.012c0,0-35.028,0-35.028,35.029v64.412"/>
	<circle clip-path="url(#SVGID_4_)" fill="none" stroke="#435463" stroke-width="12.974" cx="518.055" cy="243.212" r="38.531"/>
	<path clip-path="url(#SVGID_4_)" fill="none" stroke="#435463" stroke-width="9.944" d="M652.464,414.065V364.69
		c0,0,0-26.848-26.851-26.848h-10.739c0,0-26.85,0-26.85,26.848v49.373"/>
	<circle clip-path="url(#SVGID_4_)" fill="none" stroke="#435463" stroke-width="9.944" cx="620.244" cy="297.568" r="29.534"/>
</g>
</svg>
