<?xml version="1.0" encoding="utf-8"?>
<!-- Generator: Adobe Illustrator 16.0.0, SVG Export Plug-In . SVG Version: 6.00 Build 0)  -->
<!DOCTYPE svg PUBLIC "-//W3C//DTD SVG 1.1//EN" "http://www.w3.org/Graphics/SVG/1.1/DTD/svg11.dtd">
<svg version="1.1" id="Capa_1" xmlns="http://www.w3.org/2000/svg" xmlns:xlink="http://www.w3.org/1999/xlink" x="0px" y="0px"
	 width="841.89px" height="595.28px" viewBox="0 0 841.89 595.28" enable-background="new 0 0 841.89 595.28" xml:space="preserve">
<g>
	<defs>
		<rect id="SVGID_1_" x="131.252" y="207.276" width="597.113" height="154.519"/>
	</defs>
	<clipPath id="SVGID_2_">
		<use xlink:href="#SVGID_1_"  overflow="visible"/>
	</clipPath>
	<path clip-path="url(#SVGID_2_)" fill="#4A4441" d="M701.647,333.473c3.519,0,6.883-0.396,10.094-1.188
		c3.21-0.791,6.046-2,8.51-3.627c2.462-1.627,4.43-3.672,5.904-6.135c1.473-2.465,2.21-5.365,2.21-8.709
		c0-2.727-0.452-5.078-1.354-7.059c-0.902-1.979-2.188-3.727-3.859-5.244s-3.693-2.88-6.068-4.09
		c-2.374-1.209-5.057-2.385-8.048-3.529c-2.242-0.879-4.244-1.691-6.003-2.44c-1.76-0.747-3.256-1.583-4.485-2.506
		c-1.232-0.924-2.167-1.979-2.804-3.167c-0.639-1.188-0.956-2.66-0.956-4.42c0-1.407,0.317-2.693,0.956-3.859
		c0.637-1.164,1.539-2.165,2.705-3.001c1.164-0.835,2.561-1.484,4.188-1.946c1.626-0.462,3.452-0.692,5.476-0.692
		c6.465,0,12.181,1.628,17.15,4.882v-10.951c-4.617-2.022-9.852-3.034-15.7-3.034c-3.298,0-6.498,0.418-9.598,1.253
		c-3.1,0.836-5.861,2.078-8.279,3.728c-2.419,1.648-4.354,3.693-5.805,6.135s-2.177,5.245-2.177,8.411
		c0,2.595,0.385,4.859,1.154,6.795c0.77,1.935,1.913,3.661,3.431,5.178c1.517,1.518,3.407,2.881,5.673,4.09
		c2.265,1.209,4.892,2.409,7.883,3.596c2.154,0.836,4.166,1.639,6.036,2.406c1.869,0.771,3.496,1.641,4.882,2.607
		c1.385,0.967,2.484,2.076,3.298,3.33s1.221,2.783,1.221,4.586c0,6.332-4.749,9.498-14.249,9.498c-7.081,0-13.567-2.176-19.46-6.531
		v11.611C688.674,332.131,694.699,333.473,701.647,333.473 M653.657,278.72c3.76,4.574,5.64,11.082,5.64,19.526
		c0,8.357-1.88,14.798-5.64,19.328c-3.761,4.531-9.137,6.795-16.129,6.795c-6.86,0-12.335-2.309-16.426-6.926
		c-4.09-4.617-6.135-10.93-6.135-18.933c0-8.312,2.022-14.831,6.069-19.559c4.045-4.728,9.542-7.092,16.491-7.092
		C644.521,271.86,649.896,274.147,653.657,278.72 M661.243,323.742c6.091-6.486,9.137-15.117,9.137-25.892
		c0-10.993-2.826-19.592-8.478-25.793c-5.65-6.2-13.513-9.301-23.582-9.301c-10.556,0-18.933,3.189-25.134,9.565
		c-6.2,6.377-9.302,15.237-9.302,26.585c0,10.421,2.979,18.791,8.939,25.099c5.958,6.313,13.929,9.467,23.913,9.467
		C646.982,333.473,655.152,330.23,661.243,323.742 M595.112,321.994c-1.979,1.496-4.332,2.244-7.06,2.244
		c-3.562,0-6.113-0.967-7.652-2.904c-1.539-1.934-2.309-5.166-2.309-9.697v-38.062h17.021v-9.235h-17.021v-19.988l-10.818,3.496
		v16.492h-11.609v9.235h11.609v39.976c0,13.193,5.914,19.789,17.745,19.789c4.178,0,7.542-0.703,10.094-2.109V321.994z
		 M543.395,290.594c0-9.015-1.959-15.909-5.871-20.681c-3.916-4.771-9.565-7.157-16.955-7.157c-9.674,0-17.063,4.267-22.164,12.797
		h-0.264v-11.214h-10.818v67.549h10.818v-38.524c0-6.2,1.77-11.335,5.311-15.403c3.539-4.066,8.015-6.102,13.424-6.102
		c10.466,0,15.699,7.169,15.699,21.505v38.524h10.82V290.594z M465.486,264.339h-10.818v38.92c0,6.289-1.704,11.379-5.112,15.271
		c-3.409,3.893-7.751,5.838-13.028,5.838c-10.908,0-16.359-7.125-16.359-21.373v-38.657h-10.753v40.372
		c0,19.174,8.048,28.762,24.144,28.762c9.411,0,16.36-4.09,20.846-12.27h0.264v10.686h10.818V264.339z M360.732,247.321
		c14.776,0,22.165,6.245,22.165,18.733c0,6.377-2.012,11.313-6.035,14.811c-4.024,3.496-9.862,5.244-17.516,5.244h-11.61v-38.788
		H360.732z M360.204,296.135c10.51,0,18.854-2.857,25.034-8.576c6.179-5.716,9.269-13.061,9.269-22.032s-2.782-15.919-8.345-20.846
		c-5.564-4.925-13.403-7.388-23.517-7.388h-25.991v94.595h11.082v-35.753H360.204z"/>
	<path clip-path="url(#SVGID_2_)" fill="#435463" d="M208.512,360.123c41.746,0,75.588-33.842,75.588-75.587
		c0-41.747-33.842-75.59-75.588-75.59c-41.746,0-75.588,33.843-75.588,75.59C132.923,326.281,166.766,360.123,208.512,360.123"/>
</g>
<g>
	<defs>
		<path id="SVGID_3_" d="M132.923,284.535c0,41.747,33.842,75.588,75.589,75.588c41.746,0,75.588-33.842,75.588-75.588
			c0-41.746-33.842-75.588-75.588-75.588C166.765,208.947,132.923,242.789,132.923,284.535"/>
	</defs>
	<clipPath id="SVGID_4_">
		<use xlink:href="#SVGID_3_"  overflow="visible"/>
	</clipPath>
	<path clip-path="url(#SVGID_4_)" fill="#FFFFFF" d="M196.742,275.038c-3.281-0.367-8.522-10.427-8.98-12.365
		c1.165,1.896,10.331,0.47,17.764,10.569C205.526,273.242,206.484,276.128,196.742,275.038 M216.836,276.503
		c-0.999-0.474-2.008-0.89-3.025-1.26c-9.025-17.093-23.43-31.518-42.212-40.442c-15.832-7.521-32.723-10.154-48.992-8.523
		c5.945,2.847,11.543,7.069,15.164,12.898c-13.678-5.409-27.979-7.331-41.862-6.145c-4.951,0.424-9.847,1.245-14.645,2.443
		c3.154,1.071,5.951,2.603,8.054,4.575c-10.243-1.179-20.937-1.406-34.201,6.384c-1.592,0.974-3.159,1.997-4.696,3.066
		c3.909-0.011,7.564,1.001,10.749,2.858c-7.72,0.165-22.579,5.533-33.711,20.029c-2.978,4.249-5.645,8.805-7.948,13.648
		c-4.125,8.687-6.795,17.686-8.108,26.727c6.067-12.9,24.001-33.653,46.916-38.228c-23.261,8.782-43.132,38.05-47.366,61.314
		c2.023,19.219,9.979,37.514,22.887,52.1c3.797-52.414,36.542-101.619,88.103-120.68c-50.826,24.485-79.856,80.725-72.422,134.754
		c4.337,3.078,8.995,5.828,13.962,8.186c10.608,5.039,21.692,7.881,32.748,8.723c-19.304-43.256-14.134-90.264,26.352-118.072
		c-34.887,31.951-33.625,80.404-3.802,117.027c7.003-1.193,13.85-3.178,20.391-5.91c7.841-3.273,15.248-7.621,21.986-12.953
		c-21.068-16.234-28.717-45.531-16.808-70.602c5.324-11.205,5.872-37.466,15.901-43.131c7.184-4.055,17.134,11.739,31.308,10.278
		c9.875-1.018,20.126,0.776,29.734,5.341c0.596,0.283,1.175,0.588,1.758,0.891c4.899,2.535,9.289,5.678,13.117,9.303
		C237.67,297.016,230.323,282.912,216.836,276.503"/>
</g>
<g>
	<defs>
		<rect id="SVGID_5_" x="131.252" y="207.276" width="597.113" height="154.519"/>
	</defs>
	<clipPath id="SVGID_6_">
		<use xlink:href="#SVGID_5_"  overflow="visible"/>
	</clipPath>
	<circle clip-path="url(#SVGID_6_)" fill="none" stroke="#435463" stroke-width="3.342" cx="208.512" cy="284.534" r="75.589"/>
</g>
<polygon fill="#FFFFFF" points="238.447,222.78 236.116,229.865 229.125,227.27 233.21,233.509 226.821,237.358 234.248,238.054 
	233.273,245.449 238.447,240.077 243.622,245.449 242.647,238.054 250.073,237.358 243.685,233.509 247.771,227.27 240.778,229.865 
	"/>
<polygon fill="#FFFFFF" points="259.057,245.471 256.997,251.734 250.815,249.44 254.427,254.956 248.78,258.358 255.344,258.973 
	254.483,265.509 259.057,260.76 263.631,265.509 262.77,258.973 269.334,258.358 263.687,254.956 267.299,249.44 261.117,251.734 
	"/>
<polygon fill="#FFFFFF" points="270.538,269.453 268.795,274.751 263.564,272.81 266.621,277.478 261.842,280.357 267.396,280.877 
	266.668,286.409 270.538,282.39 274.408,286.409 273.68,280.877 279.234,280.357 274.455,277.478 277.512,272.81 272.281,274.751 
	"/>
<polygon fill="#FFFFFF" points="271.236,292.342 269.651,297.16 264.896,295.395 267.675,299.639 263.331,302.256 268.38,302.729 
	267.718,307.758 271.236,304.104 274.754,307.758 274.092,302.729 279.143,302.256 274.797,299.639 277.576,295.395 272.821,297.16 
	"/>
<polygon fill="#FFFFFF" points="265.256,311.395 263.83,315.73 259.55,314.143 262.051,317.959 258.141,320.316 262.686,320.742 
	262.09,325.268 265.256,321.98 268.422,325.268 267.826,320.742 272.371,320.316 268.461,317.959 270.962,314.143 266.682,315.73 
	"/>
<polygon fill="#FFFFFF" points="253.502,326.086 252.076,330.422 247.796,328.834 250.297,332.652 246.387,335.008 250.932,335.436 
	250.336,339.959 253.502,336.672 256.668,339.959 256.072,335.436 260.617,335.008 256.707,332.652 259.208,328.834 
	254.928,330.422 "/>
<polygon fill="#FFFFFF" points="238.848,337.754 237.707,341.223 234.283,339.951 236.284,343.006 233.156,344.891 236.792,345.232 
	236.315,348.852 238.848,346.221 241.381,348.852 240.904,345.232 244.54,344.891 241.412,343.006 243.413,339.951 239.989,341.223 
	"/>
</svg>
