<?xml version="1.0" encoding="utf-8"?>
<!-- Generator: Adobe Illustrator 16.0.0, SVG Export Plug-In . SVG Version: 6.00 Build 0)  -->
<!DOCTYPE svg PUBLIC "-//W3C//DTD SVG 1.1//EN" "http://www.w3.org/Graphics/SVG/1.1/DTD/svg11.dtd">
<svg version="1.1" id="Capa_1" xmlns="http://www.w3.org/2000/svg" xmlns:xlink="http://www.w3.org/1999/xlink" x="0px" y="0px"
	 width="595.28px" height="841.89px" viewBox="0 0 595.28 841.89" enable-background="new 0 0 595.28 841.89" xml:space="preserve">
<g>
	<defs>
		<rect id="SVGID_1_" x="59" y="211.53" width="477.139" height="419.361"/>
	</defs>
	<clipPath id="SVGID_2_">
		<use xlink:href="#SVGID_1_"  overflow="visible"/>
	</clipPath>
	<path clip-path="url(#SVGID_2_)" fill="#435463" d="M503.627,295.402L455.7,463.146H223.978l-37.277-167.745H503.627z
		 M212.729,491.107h0.021c0.019,0,0.037-0.004,0.056-0.004h253.439c6.24,0,11.726-4.139,13.439-10.139L535.6,285.264
		c1.205-4.219,0.361-8.755-2.278-12.257c-2.644-3.502-6.774-5.563-11.161-5.563H180.491l-9.992-44.969
		c-1.424-6.396-7.096-10.946-13.648-10.946H72.979c-7.721,0-13.979,6.257-13.979,13.979s6.258,13.979,13.979,13.979h72.66
		c1.769,7.969,47.818,215.195,50.469,227.117c-14.856,6.459-25.279,21.27-25.279,38.479c0,23.121,18.814,41.936,41.936,41.936
		h253.48c7.721,0,13.979-6.258,13.979-13.979s-6.258-13.979-13.979-13.979h-253.48c-7.706,0-13.978-6.273-13.978-13.979
		C198.787,497.387,205.037,491.125,212.729,491.107"/>
</g>
<g>
	<defs>
		<rect id="SVGID_3_" x="59" y="211.53" width="477.139" height="419.361"/>
	</defs>
	<clipPath id="SVGID_4_">
		<use xlink:href="#SVGID_3_"  overflow="visible"/>
	</clipPath>
	<path clip-path="url(#SVGID_4_)" fill="#435463" d="M240.723,574.975c7.707,0,13.979,6.273,13.979,13.979
		c0,7.707-6.272,13.98-13.979,13.98s-13.979-6.273-13.979-13.98C226.744,581.248,233.016,574.975,240.723,574.975 M198.787,588.953
		c0,23.123,18.813,41.938,41.936,41.938s41.936-18.814,41.936-41.938s-18.813-41.936-41.936-41.936S198.787,565.83,198.787,588.953"
		/>
	<path clip-path="url(#SVGID_4_)" fill="#435463" d="M438.288,574.975c7.707,0,13.979,6.273,13.979,13.979
		c0,7.707-6.271,13.98-13.979,13.98c-7.706,0-13.979-6.273-13.979-13.98C424.309,581.248,430.582,574.975,438.288,574.975
		 M396.352,588.953c0,23.123,18.813,41.938,41.937,41.938s41.936-18.814,41.936-41.938s-18.813-41.936-41.936-41.936
		S396.352,565.83,396.352,588.953"/>
</g>
</svg>
