<?xml version="1.0" encoding="utf-8"?>
<!-- Generator: Adobe Illustrator 16.0.0, SVG Export Plug-In . SVG Version: 6.00 Build 0)  -->
<!DOCTYPE svg PUBLIC "-//W3C//DTD SVG 1.1//EN" "http://www.w3.org/Graphics/SVG/1.1/DTD/svg11.dtd">
<svg version="1.1" id="Capa_1" xmlns="http://www.w3.org/2000/svg" xmlns:xlink="http://www.w3.org/1999/xlink" x="0px" y="0px"
	 width="841.89px" height="595.28px" viewBox="0 0 841.89 595.28" enable-background="new 0 0 841.89 595.28" xml:space="preserve">
<g>
	<defs>
		<rect id="SVGID_1_" x="223" y="141.017" width="397.264" height="397.263"/>
	</defs>
	<clipPath id="SVGID_2_">
		<use xlink:href="#SVGID_1_"  overflow="visible"/>
	</clipPath>
	<circle clip-path="url(#SVGID_2_)" fill="none" stroke="#435463" stroke-width="12.994" cx="421.632" cy="339.649" r="192.135"/>
	<path clip-path="url(#SVGID_2_)" fill="#435463" d="M433.856,287.146h-27.002v168.599h27.002V287.146z M433.281,239.235
		c3.457-3.401,5.186-7.517,5.186-12.348c0-5.048-1.729-9.246-5.186-12.596c-3.459-3.347-7.656-5.022-12.596-5.022
		c-4.832,0-8.948,1.675-12.349,5.022c-3.404,3.35-5.104,7.548-5.104,12.596c0,5.05,1.7,9.22,5.104,12.513
		c3.401,3.292,7.517,4.939,12.349,4.939C425.625,244.339,429.822,242.639,433.281,239.235"/>
</g>
</svg>
