<?xml version="1.0" encoding="utf-8"?>
<!-- Generator: Adobe Illustrator 16.0.0, SVG Export Plug-In . SVG Version: 6.00 Build 0)  -->
<!DOCTYPE svg PUBLIC "-//W3C//DTD SVG 1.1//EN" "http://www.w3.org/Graphics/SVG/1.1/DTD/svg11.dtd">
<svg version="1.1" id="Capa_1" xmlns="http://www.w3.org/2000/svg" xmlns:xlink="http://www.w3.org/1999/xlink" x="0px" y="0px"
	 width="841.89px" height="595.281px" viewBox="0 0 841.89 595.281" enable-background="new 0 0 841.89 595.281"
	 xml:space="preserve">
<g>
	<g>
		<g>
			<defs>
				<rect id="SVGID_1_" x="33.445" y="29.957" width="779.293" height="537.183"/>
			</defs>
			<clipPath id="SVGID_2_">
				<use xlink:href="#SVGID_1_"  overflow="visible"/>
			</clipPath>
			<path clip-path="url(#SVGID_2_)" fill="none" stroke="#435463" stroke-width="10" d="M795.091,297.03
				C748.228,154.808,599.542,46.605,423.416,46.605c-177.251,0-326.691,104.978-372.526,252.017
				c46.833,143.667,195.564,251.856,371.688,251.856c177.254,0,326.635-104.949,372.514-250.557
				C795.787,297.681,796.943,302.657,795.091,297.03z"/>
		</g>
	</g>
	<g>
		<g>
			<defs>
				<rect id="SVGID_3_" x="33.445" y="29.957" width="779.293" height="537.183"/>
			</defs>
			<clipPath id="SVGID_4_">
				<use xlink:href="#SVGID_3_"  overflow="visible"/>
			</clipPath>
			<path clip-path="url(#SVGID_4_)" fill="none" stroke="#435463" stroke-width="10" d="M423.3,122.38
				c111.732,0,202.334,78.87,202.334,176.153c0,97.298-90.602,176.154-202.334,176.154c-111.748,0-202.319-78.856-202.319-176.154
				C220.981,201.25,311.554,122.38,423.3,122.38z"/>
		</g>
	</g>
</g>
</svg>
