<?xml version="1.0" encoding="utf-8"?>
<!-- Generator: Adobe Illustrator 16.0.0, SVG Export Plug-In . SVG Version: 6.00 Build 0)  -->
<!DOCTYPE svg PUBLIC "-//W3C//DTD SVG 1.1//EN" "http://www.w3.org/Graphics/SVG/1.1/DTD/svg11.dtd">
<svg version="1.1" id="Capa_1" xmlns="http://www.w3.org/2000/svg" xmlns:xlink="http://www.w3.org/1999/xlink" x="0px" y="0px"
	 width="841.89px" height="595.28px" viewBox="0 0 841.89 595.28" enable-background="new 0 0 841.89 595.28" xml:space="preserve">
<g>
	<defs>
		<rect id="SVGID_1_" x="137.051" y="71.116" width="560.468" height="459.864"/>
	</defs>
	<clipPath id="SVGID_2_">
		<use xlink:href="#SVGID_1_"  overflow="visible"/>
	</clipPath>
	<path clip-path="url(#SVGID_2_)" fill="#F7A600" d="M245.542,252.166c4.072,5.821,11.476,9.9,18.028,13.934
		c6.387-19.636,13.412-39.095,20.998-58.325c-4.681-0.776-9.368-1.535-14.086-2.028c-11.496-1.206-15.889,2.088-21.288,12.715
		C244.063,228.567,238.125,241.578,245.542,252.166 M249.201,389.702c0.538,8.167,4.784,12.255,10.901,13.958
		c10.277-58.769,28.524-118.615,50.643-173.773c18.625-46.463,36.608-98.3,64.75-140.26c-5.145-2.227-10.363-2.62-15.376,0.255
		c-6.668,3.822-12.381,19.026-15.892,25.434c-16.307,29.762-29.98,61.089-42.53,92.584c-14.993,37.63-28.24,76.051-38.629,115.213
		C257.84,342.836,247.846,369.169,249.201,389.702 M314.329,394.592c33.85-7.482,67.63-15.804,102.2-19.246
		c39.556-3.937,78.747-0.125,117.648,6.992c13.438-37.443,26.122-75.131,38.061-113.081
		c-64.884-35.417-115.334-90.747-162.899-146.288c-5.5-6.424-14.221-18.743-23.959-26.961
		c-28.066,42.023-46.393,94.367-64.772,140.75c-21.094,53.21-38.63,111.099-48.733,167.752
		C286.334,403.441,304.176,396.839,314.329,394.592 M655.25,391.556c6.092-8.47,10.968-17.534,15.042-27.115
		c4.07-9.581,7.211-19.378,9.071-29.645c3.986-22.011-8.349-31.676-27.337-38.074c-22.936-7.724-45.997-15.042-69.136-22.129
		c-11.675,37.013-24.061,73.778-37.157,110.307c20.528,6.599,41.19,12.707,62.093,18.023
		C627.274,407.871,641.978,410.004,655.25,391.556 M259.271,193.535c9.48-1.266,19.949,1.099,29.724,2.992
		c10.101-24.734,21.163-49.035,33.103-72.722c7.528-14.935,16.359-38.584,30.951-48.465c20.166-13.652,42.922,8.95,55.576,22.816
		c53.901,59.064,103.05,121.386,175.245,159.607c0.68,0.356,1.227,0.779,1.713,1.226c20.346,6.213,40.631,12.608,60.817,19.311
		c13.004,4.319,30.727,7.234,41.459,16.783c18.428,16.398,6.127,52.101-1.155,70.821c-6.864,17.646-22.823,53.214-43.363,59.263
		c-5.621,1.659-12.285,0.766-18.947-0.907c-12.212,25.333-23.328,51.387-37.42,75.763c-9.074,15.693-18.26,36.58-39.468,29.557
		c-22.118-7.318-49.972-29.89-43.239-56.002c3.402-13.194,15.452-23.038,22.954-33.737c8.296-11.853,14.765-24.681,20.855-37.731
		c-3.28-1.034-6.562-2.056-9.836-3.117c-41.429-8.073-83.097-12.211-125.196-7.56c-37.464,4.138-74.062,14.024-110.854,21.86
		c-18.125,3.858-52.675,18.151-65.128-3.799c-12.725-22.424,4.057-64.354,9.843-86.629c3.937-15.134,8.312-30.216,12.988-45.221
		c-10.166-6.831-22.765-13.303-27.729-24.735c-5.231-12.06-0.017-25.372,5.069-36.508
		C241.601,206.849,247.802,195.063,259.271,193.535"/>
	<path clip-path="url(#SVGID_2_)" fill="#F7A600" d="M269.069,154.202c-0.159-19.206,0.061-38.413-0.096-57.62
		c-0.107-13.01,20.335-13.024,20.44,0c0.162,19.207-0.061,38.414,0.096,57.62C289.618,167.216,269.176,167.226,269.069,154.202"/>
	<path clip-path="url(#SVGID_2_)" fill="#F7A600" d="M220.208,179.568c-12.067-11.673-24.127-23.347-36.186-35.031
		c-10.018-9.703,6.297-24.197,16.367-14.454c12.063,11.68,24.124,23.357,36.191,35.034
		C246.6,174.815,230.268,189.317,220.208,179.568"/>
	<path clip-path="url(#SVGID_2_)" fill="#F7A600" d="M149.757,220.591c19.598-1.078,39.235-0.97,58.857-1.505
		c16.996-0.46,16.985,22.767,0,23.228c-19.623,0.533-39.26,0.426-58.857,1.507C132.783,244.751,132.851,221.521,149.757,220.591"/>
	<path clip-path="url(#SVGID_2_)" fill="#F7A600" d="M228.357,282.805c10.055-9.4,19.677,12.218,9.714,21.531
		c-12.263,11.462-23.663,24.32-34.83,37.503c-9.139,10.784-22.786-6.794-13.608-17.636
		C202.021,309.588,214.759,295.513,228.357,282.805"/>
</g>
</svg>
