<?xml version="1.0" encoding="utf-8"?>
<!-- Generator: Adobe Illustrator 16.0.0, SVG Export Plug-In . SVG Version: 6.00 Build 0)  -->
<!DOCTYPE svg PUBLIC "-//W3C//DTD SVG 1.1//EN" "http://www.w3.org/Graphics/SVG/1.1/DTD/svg11.dtd">
<svg version="1.1" id="Capa_1" xmlns="http://www.w3.org/2000/svg" xmlns:xlink="http://www.w3.org/1999/xlink" x="0px" y="0px"
	 width="841.89px" height="595.28px" viewBox="0 0 841.89 595.28" enable-background="new 0 0 841.89 595.28" xml:space="preserve">
<g>
	<defs>
		<rect id="SVGID_1_" x="152.34" y="116.694" width="498.76" height="394.025"/>
	</defs>
	<clipPath id="SVGID_2_">
		<use xlink:href="#SVGID_1_"  overflow="visible"/>
	</clipPath>
	<path clip-path="url(#SVGID_2_)" fill="#435463" d="M263.803,271.835c3.488,4.969,9.828,8.467,15.442,11.921
		c5.483-16.802,11.5-33.492,18.008-49.961c-4.012-0.668-8.035-1.337-12.068-1.737c-9.861-1.048-13.626,1.782-18.239,10.875
		C262.545,251.578,257.454,262.743,263.803,271.835 M266.946,389.672c0.456,6.997,4.11,10.496,9.337,11.944
		c8.802-50.339,24.433-101.637,43.398-148.879c15.955-39.821,31.375-84.234,55.475-120.2c-4.4-1.894-8.88-2.229-13.169,0.224
		c-5.705,3.275-10.606,16.311-13.615,21.792c-13.973,25.494-25.694,52.346-36.447,79.332
		c-12.846,32.245-24.188,65.158-33.092,98.741C274.344,349.494,265.787,372.068,266.946,389.672 M322.745,393.861
		c29.001-6.418,57.96-13.548,87.576-16.489c33.895-3.388,67.476-0.111,100.813,5.994c11.497-32.089,22.395-64.4,32.6-96.913
		c-55.574-30.351-98.805-77.75-139.574-125.348c-4.703-5.504-12.189-16.066-20.534-23.086
		c-24.055,36.012-39.756,80.847-55.498,120.601c-18.074,45.593-33.093,95.197-41.759,143.731
		C298.755,401.438,314.044,395.777,322.745,393.861 M614.864,391.255c5.215-7.243,9.404-15.042,12.881-23.222
		c3.521-8.222,6.193-16.622,7.801-25.425c3.385-18.852-7.177-27.12-23.444-32.602c-19.653-6.618-39.396-12.903-59.23-18.964
		c-9.984,31.711-20.611,63.198-31.821,94.507c17.58,5.659,35.254,10.897,53.168,15.465
		C590.908,405.226,603.501,407.053,614.864,391.255 M275.571,221.585c8.131-1.092,17.091,0.936,25.469,2.541
		c8.647-21.17,18.138-42.006,28.369-62.284c6.45-12.813,14.005-33.07,26.505-41.537c17.303-11.699,36.79,7.666,47.633,19.564
		c46.195,50.585,88.31,104,150.172,136.756c0.577,0.291,1.047,0.647,1.471,1.048c17.427,5.304,34.807,10.785,52.098,16.535
		c11.144,3.699,26.34,6.216,35.522,14.373c15.799,14.063,5.258,44.658-0.981,60.68c-5.882,15.131-19.564,45.615-37.167,50.807
		c-4.816,1.404-10.52,0.647-16.225-0.779c-10.474,21.704-19.967,44.012-32.09,64.912c-7.756,13.438-15.621,31.332-33.804,25.338
		c-18.941-6.284-42.809-25.626-37.036-47.999c2.896-11.32,13.237-19.745,19.678-28.902c7.085-10.161,12.634-21.147,17.871-32.335
		c-2.809-0.891-5.661-1.76-8.469-2.673c-35.477-6.908-71.174-10.475-107.253-6.485c-32.11,3.543-63.465,12.034-94.974,18.74
		c-15.542,3.299-45.137,15.555-55.822-3.274c-10.906-19.209,3.479-55.131,8.448-74.229c3.374-12.946,7.118-25.872,11.12-38.729
		c-8.704-5.86-19.489-11.387-23.755-21.191c-4.479-10.341,0-21.75,4.356-31.288C260.429,232.994,265.743,222.877,275.571,221.585"/>
	<path clip-path="url(#SVGID_2_)" fill="#435463" d="M265.463,187.869c-0.145-16.446,0.046-32.892-0.101-49.382
		c-0.088-11.12,17.438-11.142,17.527,0c0.146,16.49-0.043,32.936,0.088,49.382C283.08,199.033,265.552,199.033,265.463,187.869"/>
	<path clip-path="url(#SVGID_2_)" fill="#435463" d="M223.593,209.618c-10.338-10.006-20.669-20.011-31.008-30.018
		c-8.578-8.333,5.404-20.745,14.029-12.39c10.338,10.005,20.677,20.011,31.018,30.018
		C246.211,205.563,232.217,217.974,223.593,209.618"/>
	<path clip-path="url(#SVGID_2_)" fill="#435463" d="M163.226,244.76c16.791-0.936,33.615-0.847,50.429-1.292
		c14.563-0.402,14.563,19.499,0,19.921c-16.814,0.446-33.639,0.357-50.429,1.271C148.696,265.461,148.741,245.562,163.226,244.76"/>
	<path clip-path="url(#SVGID_2_)" fill="#435463" d="M230.578,298.063c8.625-8.045,16.858,10.473,8.322,18.474
		c-10.516,9.804-20.276,20.834-29.837,32.133c-7.833,9.225-19.542-5.839-11.666-15.109
		C208.004,321.015,218.913,308.96,230.578,298.063"/>
</g>
</svg>
