<?xml version="1.0" encoding="utf-8"?>
<!-- Generator: Adobe Illustrator 16.0.0, SVG Export Plug-In . SVG Version: 6.00 Build 0)  -->
<!DOCTYPE svg PUBLIC "-//W3C//DTD SVG 1.1//EN" "http://www.w3.org/Graphics/SVG/1.1/DTD/svg11.dtd">
<svg version="1.1" id="Capa_1" xmlns="http://www.w3.org/2000/svg" xmlns:xlink="http://www.w3.org/1999/xlink" x="0px" y="0px"
	 width="841.89px" height="595.28px" viewBox="0 0 841.89 595.28" enable-background="new 0 0 841.89 595.28" xml:space="preserve">
<g>
	<defs>
		<rect id="SVGID_1_" x="117.516" y="38.245" width="618.421" height="528.662"/>
	</defs>
	<clipPath id="SVGID_2_">
		<use xlink:href="#SVGID_1_"  overflow="visible"/>
	</clipPath>
	<path clip-path="url(#SVGID_2_)" fill="#435463" d="M340.093,342.13c0-95.029,71.271-171.068,169.491-171.068
		c75.254,0,132.249,43.549,156.02,102.146c9.481,20.593,14.236,44.336,13.446,68.108c0,22.981-4.725,46.727-14.233,67.317
		c-22.983,60.202-78.403,103.724-153.655,103.724c-117.21,0-170.253-92.611-171.068-169.466V342.13z M735.938,129.198
		L735.938,129.198h-58.463v89.461c-20.593-48.412-83.184-101.333-174.22-101.333c-129.884,0-220.85,99.674-220.85,224.804
		c0,117.197,82.261,224.751,220.85,224.751c76.039,0,140.968-35.535,174.22-99.619v87.775h54.416c0,0,4.047,0,4.047-4.049V129.198z"
		/>
	<path clip-path="url(#SVGID_2_)" fill="#435463" d="M117.516,563.402L117.516,563.402h65.174c0,0,4.062,0,4.062-4.049V285.082
		c0-115.895,55.12-177.617,153.897-177.617h6.645v-69.22c-59.835,1.901-126.353,21.814-163.368,97.69V52.479h-62.348
		c0,0-4.062,0-4.062,4.048V563.402z"/>
</g>
</svg>
