<?xml version="1.0" encoding="utf-8"?>
<!-- Generator: Adobe Illustrator 16.0.0, SVG Export Plug-In . SVG Version: 6.00 Build 0)  -->
<!DOCTYPE svg PUBLIC "-//W3C//DTD SVG 1.1//EN" "http://www.w3.org/Graphics/SVG/1.1/DTD/svg11.dtd">
<svg version="1.1" id="Capa_1" xmlns="http://www.w3.org/2000/svg" xmlns:xlink="http://www.w3.org/1999/xlink" x="0px" y="0px"
	 width="841.89px" height="595.28px" viewBox="0 0 841.89 595.28" enable-background="new 0 0 841.89 595.28" xml:space="preserve">
<g>
	<defs>
		<rect id="SVGID_1_" x="367.874" y="108.879" width="377.662" height="344.772"/>
	</defs>
	<clipPath id="SVGID_2_">
		<use xlink:href="#SVGID_1_"  overflow="visible"/>
	</clipPath>
	<path clip-path="url(#SVGID_2_)" fill="none" stroke="#435564" stroke-width="18" d="M583.307,140.13
		c-1.253-12.799-12.055-22.809-25.18-22.809c-12.56,0-22.997,9.169-24.945,21.187 M521.769,419.081
		c3.442,14.983,16.841,26.146,32.856,26.146c15.642,0,28.777-10.669,32.6-25.09 M672.616,334.112v-93.897
		c0,0,0-101.129-101.129-101.129H537.77c0,0-101.136,0-101.136,101.129v25.871v58.413c0,52.583-27.34,77.828-47.87,91.322
		c5.733,1.387,331.725,0,331.725,0s-47.873-38.739-47.873-91.322v-57.808"/>
</g>
<polygon fill="#475E6C" points="245.456,166.981 245.456,259.042 153.395,259.042 153.395,289.651 245.456,289.651 245.456,381.712 
	275.84,381.712 275.84,289.651 368.126,289.651 368.126,259.042 275.84,259.042 275.84,166.981 "/>
</svg>
