<?xml version="1.0" encoding="utf-8"?>
<!-- Generator: Adobe Illustrator 16.0.0, SVG Export Plug-In . SVG Version: 6.00 Build 0)  -->
<!DOCTYPE svg PUBLIC "-//W3C//DTD SVG 1.1//EN" "http://www.w3.org/Graphics/SVG/1.1/DTD/svg11.dtd">
<svg version="1.1" id="Capa_1" xmlns="http://www.w3.org/2000/svg" xmlns:xlink="http://www.w3.org/1999/xlink" x="0px" y="0px"
	 width="40px" height="40px" viewBox="0 0 40 40" enable-background="new 0 0 40 40" xml:space="preserve">
<g>
	<defs>
		<rect id="SVGID_1_" x="6.108" y="6.777" width="28.554" height="28.223"/>
	</defs>
	<clipPath id="SVGID_2_">
		<use xlink:href="#SVGID_1_"  overflow="visible"/>
	</clipPath>
	<path clip-path="url(#SVGID_2_)" fill="#FFFFFF" d="M34.662,29.252c-0.123-0.051-0.303-0.076-0.535-0.076
		c-0.324,0-0.617,0.109-0.879,0.331c-0.264,0.22-0.459,0.526-0.586,0.92h-0.021v-1.153h-0.896v5.596h0.896v-2.853
		c0-0.623,0.127-1.114,0.385-1.476C33.283,30.181,33.602,30,33.984,30c0.295,0,0.521,0.061,0.678,0.181V29.252z M29.16,32.597
		c0,0.477-0.145,0.871-0.435,1.182c-0.289,0.313-0.656,0.468-1.101,0.468c-0.324,0-0.584-0.087-0.778-0.26
		c-0.195-0.173-0.293-0.396-0.293-0.669c0-0.375,0.106-0.637,0.317-0.784s0.524-0.251,0.939-0.309l1.35-0.187V32.597z M30.057,31.23
		c0-1.392-0.658-2.088-1.973-2.088c-0.717,0-1.352,0.175-1.901,0.524v0.918c0.542-0.459,1.151-0.688,1.825-0.688
		c0.768,0,1.152,0.476,1.152,1.426l-1.678,0.235c-1.23,0.172-1.847,0.779-1.847,1.825c0,0.487,0.157,0.88,0.473,1.175
		S26.859,35,27.418,35c0.756,0,1.33-0.335,1.721-1.006h0.021v0.875h0.896V31.23z M24.237,29.273h-0.896v5.595h0.896V29.273z
		 M24.219,27.684c0.113-0.112,0.172-0.249,0.172-0.409c0-0.168-0.059-0.307-0.172-0.418c-0.115-0.111-0.256-0.167-0.418-0.167
		c-0.161,0-0.297,0.056-0.41,0.167s-0.17,0.25-0.17,0.418c0,0.167,0.057,0.306,0.17,0.415s0.249,0.164,0.41,0.164
		C23.963,27.854,24.104,27.797,24.219,27.684 M21.435,29.273l-1.487,4.087c-0.08,0.226-0.138,0.479-0.174,0.76h-0.022
		c-0.026-0.222-0.091-0.482-0.197-0.78l-1.421-4.066H17.15l2.12,5.596h0.88l2.229-5.596H21.435z M16.292,31.448
		c0-0.747-0.162-1.317-0.486-1.713c-0.324-0.395-0.792-0.593-1.404-0.593c-0.802,0-1.414,0.354-1.836,1.06h-0.022v-0.929h-0.896
		v5.596h0.896v-3.19c0-0.515,0.146-0.939,0.44-1.276c0.293-0.337,0.664-0.506,1.112-0.506c0.867,0,1.3,0.594,1.3,1.782v3.19h0.896
		V31.448z M10.261,34.038H7.025v-2.743h2.831v-0.824H7.025v-2.606h3.06v-0.831H6.107v7.836h4.153V34.038z"/>
</g>
<polygon fill="#FFFFFF" points="16.85,6.777 16.85,22.53 28.493,14.654 "/>
</svg>
