<?xml version="1.0" encoding="utf-8"?>
<!-- Generator: Adobe Illustrator 16.0.0, SVG Export Plug-In . SVG Version: 6.00 Build 0)  -->
<!DOCTYPE svg PUBLIC "-//W3C//DTD SVG 1.1//EN" "http://www.w3.org/Graphics/SVG/1.1/DTD/svg11.dtd">
<svg version="1.1" id="Capa_1" xmlns="http://www.w3.org/2000/svg" xmlns:xlink="http://www.w3.org/1999/xlink" x="0px" y="0px"
	 width="40px" height="40px" viewBox="0 0 40 40" enable-background="new 0 0 40 40" xml:space="preserve">
<g>
	<defs>
		<rect id="SVGID_1_" x="11.842" y="5.009" width="15.685" height="29.983"/>
	</defs>
	<clipPath id="SVGID_2_">
		<use xlink:href="#SVGID_1_"  overflow="visible"/>
	</clipPath>
	<path clip-path="url(#SVGID_2_)" fill="#455C6B" d="M25.012,32.217c0.179-0.052,0.281-0.238,0.23-0.417l-1.447-5.06
		c-0.051-0.178-0.232-0.281-0.41-0.233l-2.897,0.781l-0.41-0.539c-0.067-0.088-1.653-2.198-2.72-5.921
		c-1.067-3.721-0.85-6.378-0.841-6.49l0.06-0.685l2.847-0.837c0.177-0.052,0.279-0.236,0.229-0.414l-1.383-4.876
		c-0.05-0.18-0.236-0.283-0.415-0.232l-2.327,0.659c-0.919,0.264-1.574,1.078-1.625,2.026c-0.141,2.6-0.018,6.712,1.367,11.541
		c1.384,4.828,3.46,8.381,4.956,10.512c0.546,0.776,1.533,1.121,2.455,0.856L25.012,32.217z M23.897,24.282
		c0.665-0.18,1.351,0.209,1.541,0.871l2.04,7.139c0.191,0.669-0.194,1.366-0.863,1.559l-3.378,0.976
		c-1.117,0.319-2.283,0.168-3.251-0.369c-0.549-0.304-1.034-0.731-1.41-1.267c-1.585-2.257-3.783-6.018-5.245-11.114
		c-1.461-5.098-1.59-9.451-1.441-12.206c0.097-1.805,1.337-3.354,3.085-3.855l3.379-0.957c0.67-0.189,1.367,0.199,1.557,0.87
		l1.976,6.964c0.188,0.666-0.195,1.359-0.858,1.555l-2.519,0.739c0.01,0.939,0.128,2.792,0.785,5.087
		c0.658,2.294,1.535,3.912,2.022,4.704L23.897,24.282"/>
</g>
</svg>
