<?xml version="1.0" encoding="utf-8"?>
<!-- Generator: Adobe Illustrator 16.0.0, SVG Export Plug-In . SVG Version: 6.00 Build 0)  -->
<!DOCTYPE svg PUBLIC "-//W3C//DTD SVG 1.1//EN" "http://www.w3.org/Graphics/SVG/1.1/DTD/svg11.dtd">
<svg version="1.1" id="Capa_1" xmlns="http://www.w3.org/2000/svg" xmlns:xlink="http://www.w3.org/1999/xlink" x="0px" y="0px"
	 width="841.89px" height="595.28px" viewBox="0 0 841.89 595.28" enable-background="new 0 0 841.89 595.28" xml:space="preserve">
<g>
	<defs>
		<rect id="SVGID_1_" x="142.433" y="48.667" width="565.527" height="491.837"/>
	</defs>
	<clipPath id="SVGID_2_">
		<use xlink:href="#SVGID_1_"  overflow="visible"/>
	</clipPath>
	<path clip-path="url(#SVGID_2_)" fill="#435463" d="M509.856,395.076h-42.21c-2.874,0-5.223-2.351-5.244-5.245l-0.108-79.46
		l-91.555-18.642c-1.059-0.219-1.999-0.725-2.741-1.501c-5.704-5.932-8.625-14.034-8.074-22.371
		c-0.019-0.198-0.019-0.397-0.019-0.578c0-5.932,0.353-18.119,0.778-33.526c0.706-24.304,1.664-57.579,1.664-82.986
		c0-2.912,2.352-5.264,5.262-5.264c2.903,0,5.262,2.352,5.262,5.264c0,25.551-0.947,58.916-1.653,83.293
		c-0.425,14.574-0.76,26.239-0.796,32.314c0.09,0.47,0.133,0.976,0.072,1.482c-0.515,5.083,0.947,10.091,4.059,13.908l94.051,19.131
		c2.441,0.509,4.214,2.659,4.214,5.154l0.111,78.501h31.683v-96.947l-67.616-24.557c-2.117-0.777-3.482-2.766-3.464-4.991
		l0.072-7.938c0.165-19.114,0.316-35.625-0.126-52.316c-0.098-2.91,2.196-5.316,5.11-5.388c2.946-0.164,5.334,2.206,5.406,5.1
		c0.472,16.89,0.288,33.49,0.126,52.694l-0.036,4.214l67.579,24.557c2.061,0.742,3.454,2.714,3.454,4.937v105.915
		C515.118,392.726,512.767,395.076,509.856,395.076"/>
	<path clip-path="url(#SVGID_2_)" fill="#435463" d="M402.538,59.174c-12.667,0-22.957,8.1-22.957,18.065v23.328
		c0,9.963,10.29,18.047,22.957,18.047c12.648,0,22.966-8.084,22.966-18.047V77.239C425.504,67.273,415.186,59.174,402.538,59.174
		 M402.538,129.156c-18.48,0-33.499-12.84-33.499-28.589V77.239c0-15.751,15.019-28.591,33.499-28.591
		c18.465,0,33.483,12.84,33.483,28.591v23.328C436.021,116.316,421.002,129.156,402.538,129.156"/>
	<path clip-path="url(#SVGID_2_)" fill="#435463" d="M453.002,89.553h-78.701c-2.91,0-5.262-2.35-5.262-5.262
		c0-2.912,2.352-5.279,5.262-5.279h78.701c2.893,0,5.244,2.368,5.244,5.279C458.246,87.204,455.895,89.553,453.002,89.553"/>
	<path clip-path="url(#SVGID_2_)" fill="#435463" d="M619.189,540.504c-48.936,0-88.754-39.818-88.754-88.754
		c0-4.847,0.396-9.692,1.156-14.395c0.486-2.857,3.184-4.792,6.039-4.321c2.856,0.451,4.849,3.163,4.34,6.039
		c-0.651,4.143-1.012,8.392-1.012,12.677c0,43.129,35.102,78.212,78.23,78.212c43.146,0,78.247-35.083,78.247-78.212
		c0-30-17.485-57.741-44.576-70.672c-2.641-1.229-3.761-4.375-2.496-7.017c1.268-2.604,4.394-3.724,7.016-2.476
		c30.725,14.666,50.598,46.131,50.598,80.164C707.978,500.686,668.142,540.504,619.189,540.504"/>
	<path clip-path="url(#SVGID_2_)" fill="#435463" d="M619.189,405.474c-25.5,0-46.241,20.761-46.241,46.26
		c0,25.515,20.741,46.276,46.241,46.276c25.516,0,46.258-20.762,46.258-46.276C665.447,426.234,644.705,405.474,619.189,405.474
		 M619.189,508.533c-31.303,0-56.766-25.48-56.766-56.8c0-31.306,25.463-56.767,56.766-56.767c31.318,0,56.781,25.461,56.781,56.767
		C675.971,483.053,650.508,508.533,619.189,508.533"/>
	<path clip-path="url(#SVGID_2_)" fill="#435463" d="M619.189,439.453c-6.764,0-12.26,5.516-12.26,12.28
		c0,6.779,5.496,12.295,12.26,12.295c6.799,0,12.296-5.516,12.296-12.295C631.485,444.969,625.988,439.453,619.189,439.453
		 M619.189,474.552c-12.552,0-22.787-10.216-22.787-22.818c0-12.57,10.235-22.787,22.787-22.787
		c12.587,0,22.822,10.217,22.822,22.787C642.012,464.336,631.776,474.552,619.189,474.552"/>
	<path clip-path="url(#SVGID_2_)" fill="#435463" d="M244.976,457.014c1.981,4.14,6.202,7.015,11.093,7.015
		c4.891,0,9.134-2.875,11.097-7.015H244.976z M256.069,474.552c-12.576,0-22.793-10.216-22.793-22.818
		c0-2.912,2.351-5.265,5.262-5.265h35.064c2.911,0,5.262,2.353,5.262,5.265C278.863,464.336,268.646,474.552,256.069,474.552"/>
	<path clip-path="url(#SVGID_2_)" fill="#435463" d="M153.103,446.487h205.953c-2.755-54.433-47.904-97.849-102.976-97.849
		C200.987,348.639,155.842,392.055,153.103,446.487 M364.447,457.014H147.695c-2.903,0-5.262-2.354-5.262-5.264
		c0-62.66,50.988-113.654,113.647-113.654c62.642,0,113.626,50.994,113.626,113.654C369.706,454.66,367.346,457.014,364.447,457.014
		"/>
	<path clip-path="url(#SVGID_2_)" fill="#435463" d="M178.001,457.014c2.723,40.686,36.7,72.948,78.067,72.948
		c41.368,0,75.345-32.263,78.05-72.948H178.001z M256.069,540.504c-48.941,0-88.771-39.818-88.771-88.754
		c0-2.911,2.368-5.281,5.279-5.281h166.983c2.914,0,5.266,2.37,5.266,5.281C344.826,500.686,305.015,540.504,256.069,540.504"/>
	<path clip-path="url(#SVGID_2_)" fill="#435463" d="M210.11,457.014c2.614,23.036,22.232,40.996,45.959,40.996
		c23.717,0,43.331-17.96,45.96-40.996H210.11z M256.069,508.533c-31.312,0-56.771-25.48-56.771-56.8
		c0-2.876,2.352-5.265,5.251-5.265h103.033c2.91,0,5.262,2.389,5.262,5.265C312.844,483.053,287.381,508.533,256.069,508.533"/>
	<path clip-path="url(#SVGID_2_)" fill="#435463" d="M427.946,420.719c-13.754,0-25.146-1.754-31.531-5.209
		c-3.868-2.062-6.483-5.623-7.557-10.289c-6.015-25.823,37.189-87.38,37.615-87.996c1.678-2.367,4.98-2.927,7.332-1.245
		c2.384,1.698,2.917,4.99,1.239,7.357c-16.557,23.219-39.423,64.543-35.926,79.498c0.498,2.223,1.484,2.982,2.28,3.418
		c13.348,7.16,63.319,5.226,99.706-10.762c13.308-5.822,29.943-15.968,33.851-31.211c10.052-39.387,6.148-120.166,5.154-137.255
		l-25.117-10.723c-2.68-1.121-3.943-4.213-2.787-6.908c1.159-2.658,4.231-3.907,6.907-2.785l28.139,12.008
		c1.809,0.776,3.04,2.512,3.185,4.501c0.271,3.978,6.328,98.178-5.28,143.765c-3.907,15.317-17.687,28.535-39.801,38.266
		C481.411,415.639,451.28,420.719,427.946,420.719"/>
	<path clip-path="url(#SVGID_2_)" fill="#435463" d="M172.578,387.933c-0.299,0-0.595-0.018-0.885-0.071
		c-2.876-0.488-4.802-3.202-4.323-6.059c0.47-2.75,11.745-66.802,55.652-66.802h205.8c1.185-1.409,4.206-5.714,7.542-15.895
		c0.903-2.767,3.868-4.286,6.655-3.382c2.748,0.922,4.25,3.87,3.347,6.655c-5.734,17.54-11.521,21.7-13.175,22.551
		c-0.731,0.416-1.574,0.615-2.442,0.615H223.021c-35.108,0-45.164,57.432-45.263,57.993
		C177.334,386.126,175.092,387.933,172.578,387.933"/>
	<path clip-path="url(#SVGID_2_)" fill="#435463" d="M499.293,457.014H364.437c-2.903,0-5.262-2.354-5.262-5.264
		c0-2.911,2.359-5.263,5.262-5.263h134.856c22.297,0,73.457-31.268,82.825-72.389c-0.58-10.182-7.016-123.98-11.158-146.44
		c-3.111-16.763-35.482-27.163-47.688-29.73c-2.855-0.614-4.663-3.418-4.051-6.238c0.598-2.856,3.399-4.666,6.224-4.088
		c5.207,1.122,50.922,11.466,55.878,38.157c4.448,24.034,11.067,143.422,11.354,148.467c0,0.488,0,0.958-0.126,1.41
		C582.263,423.45,525.895,457.014,499.293,457.014"/>
	<path clip-path="url(#SVGID_2_)" fill="#435463" d="M582.244,395.076c-2.515,0-4.722-1.771-5.172-4.304
		c-0.525-2.857,1.357-5.589,4.214-6.132l107.417-19.818c-40.398-38.936-99.821-29.676-100.438-29.586
		c-2.877,0.471-5.571-1.464-6.039-4.32c-0.49-2.856,1.448-5.589,4.304-6.06c2.946-0.487,72.549-11.427,116.6,39.966
		c1.232,1.428,1.593,3.398,0.979,5.172c-0.615,1.771-2.152,3.092-4.016,3.417l-116.893,21.574
		C582.879,395.06,582.55,395.076,582.244,395.076"/>
	<path clip-path="url(#SVGID_2_)" fill="#435463" d="M449.818,195.921c0.234,0,0.468,0,0.721,0.036l68.033,9.332
		c2.496-0.886,4.012-3.491,3.472-6.168c-0.58-2.838-3.399-4.81-6.367-4.194c-0.631,0.126-1.265,0.144-1.881,0.036L448.95,184.62
		c-0.724-0.11-1.412-0.38-2.006-0.778l-65.765-42.134c-2.456-1.574-5.903-0.796-7.458,1.628c-0.778,1.228-1.041,2.657-0.724,4.067
		c0.317,1.41,1.149,2.622,2.37,3.4l69.388,44.467c1.192,0.76,2.676,1.032,3.997,0.742
		C449.095,195.939,449.454,195.921,449.818,195.921 M518.896,215.921c-0.234,0-0.469-0.019-0.706-0.054l-68.3-9.368
		c-3.724,0.544-7.596-0.324-10.815-2.35l-69.395-44.502c-3.59-2.298-6.047-5.841-6.962-10.001c-0.922-4.142-0.144-8.41,2.15-11.99
		c2.95-4.574,7.967-7.341,13.409-7.341c3.04,0,6.014,0.868,8.593,2.531l64.828,41.539l62.895,10.054
		c8.392-1.121,16.095,4.504,17.759,12.586c1.771,8.608-3.796,17.035-12.403,18.789C519.603,215.886,519.257,215.921,518.896,215.921
		"/>
	<path clip-path="url(#SVGID_2_)" fill="#435463" d="M211.331,327.515c-2.54,0-4.783-1.825-5.19-4.412l-6.789-41.7
		c-0.245-1.521,0.18-3.056,1.202-4.251c0.978-1.193,2.444-1.844,3.996-1.844h163.067c2.903,0,5.255,2.35,5.255,5.245
		c0,2.912-2.352,5.261-5.255,5.261H210.733l5.798,35.589c0.461,2.876-1.483,5.587-4.35,6.04
		C211.899,327.496,211.605,327.515,211.331,327.515"/>
	<path clip-path="url(#SVGID_2_)" fill="#435463" d="M203.519,275.291h140.176v-138.07H203.519V275.291z M348.975,285.833H198.257
		c-2.912,0-5.262-2.368-5.262-5.261V131.96c0-2.913,2.35-5.263,5.262-5.263h150.717c2.903,0,5.251,2.35,5.251,5.263v148.611
		C354.226,283.464,351.878,285.833,348.975,285.833"/>
	<path clip-path="url(#SVGID_2_)" fill="#435463" d="M266.424,162.215h14.409v-24.994h-14.409V162.215z M286.088,172.757h-24.919
		c-2.91,0-5.28-2.352-5.28-5.263V131.96c0-2.913,2.37-5.263,5.28-5.263h24.919c2.914,0,5.262,2.35,5.262,5.263v35.534
		C291.35,170.405,289.002,172.757,286.088,172.757"/>
	<path clip-path="url(#SVGID_2_)" fill="#435463" d="M632.227,255.67h-21.9c-10.452,0-32.512-11.158-35.008-12.424
		c-2.568-1.338-3.58-4.501-2.244-7.087c1.304-2.586,4.47-3.618,7.056-2.298c8.496,4.358,24.21,11.266,30.196,11.266h16.639v-36.835
		h-16.639c-18.391,0-29.404,20.652-29.512,20.849c-1.372,2.586-4.52,3.582-7.088,2.242c-2.586-1.338-3.617-4.52-2.28-7.087
		c0.58-1.083,14.035-26.529,38.88-26.529h21.559c2.928,0,5.604,2.352,5.604,5.245v47.398
		C637.488,253.32,635.14,255.67,632.227,255.67"/>
</g>
</svg>
