<?xml version="1.0" encoding="utf-8"?>
<!-- Generator: Adobe Illustrator 16.0.0, SVG Export Plug-In . SVG Version: 6.00 Build 0)  -->
<!DOCTYPE svg PUBLIC "-//W3C//DTD SVG 1.1//EN" "http://www.w3.org/Graphics/SVG/1.1/DTD/svg11.dtd">
<svg version="1.1" id="Capa_1" xmlns="http://www.w3.org/2000/svg" xmlns:xlink="http://www.w3.org/1999/xlink" x="0px" y="0px"
	 width="841.89px" height="595.28px" viewBox="0 0 841.89 595.28" enable-background="new 0 0 841.89 595.28" xml:space="preserve">
<polygon fill="#435463" points="135.339,506.181 190.112,414.303 241.045,489.82 "/>
<g>
	<defs>
		<rect id="SVGID_1_" x="107.655" y="130.826" width="544.005" height="394.032"/>
	</defs>
	<clipPath id="SVGID_2_">
		<use xlink:href="#SVGID_1_"  overflow="visible"/>
	</clipPath>
	<polygon clip-path="url(#SVGID_2_)" fill="none" stroke="#435463" stroke-width="18" points="135.339,506.181 190.112,414.303 
		241.045,489.82 	"/>
</g>
<rect x="544.6" y="161.625" transform="matrix(-0.829 0.5592 -0.5592 -0.829 1173.8043 55.8865)" fill="#435463" width="67.518" height="91.492"/>
<g>
	<defs>
		<rect id="SVGID_3_" x="107.655" y="130.826" width="544.005" height="394.032"/>
	</defs>
	<clipPath id="SVGID_4_">
		<use xlink:href="#SVGID_3_"  overflow="visible"/>
	</clipPath>
	
		<rect x="544.6" y="161.625" transform="matrix(-0.829 0.5592 -0.5592 -0.829 1173.8043 55.8865)" clip-path="url(#SVGID_4_)" fill="none" stroke="#435463" stroke-width="18" width="67.518" height="91.492"/>
</g>
<polygon fill="#435463" points="224.847,390.621 489.623,212.027 540.795,287.879 276.018,466.475 "/>
<polygon fill="none" stroke="#435463" stroke-width="18" points="224.847,390.621 489.623,212.027 540.795,287.879 276.018,466.475 
	"/>
</svg>
