<?xml version="1.0" encoding="utf-8"?>
<!-- Generator: Adobe Illustrator 16.0.0, SVG Export Plug-In . SVG Version: 6.00 Build 0)  -->
<!DOCTYPE svg PUBLIC "-//W3C//DTD SVG 1.1//EN" "http://www.w3.org/Graphics/SVG/1.1/DTD/svg11.dtd">
<svg version="1.1" id="Capa_1" xmlns="http://www.w3.org/2000/svg" xmlns:xlink="http://www.w3.org/1999/xlink" x="0px" y="0px"
	 width="40px" height="40px" viewBox="0 0 40 40" enable-background="new 0 0 40 40" xml:space="preserve">
<g>
	<defs>
		<polygon id="SVGID_1_" points="0.392,39.848 39.695,39.848 39.696,0.383 0.392,1.688 		"/>
	</defs>
	<clipPath id="SVGID_2_">
		<use xlink:href="#SVGID_1_"  overflow="visible"/>
	</clipPath>
	<path clip-path="url(#SVGID_2_)" fill="#455C6B" d="M34.975,37.138c0.309,0,0.561,0.251,0.561,0.561
		c0,0.309-0.252,0.559-0.561,0.559c-0.31,0-0.56-0.25-0.56-0.559C34.415,37.389,34.665,37.138,34.975,37.138 M33.295,37.698
		c0,0.926,0.753,1.681,1.68,1.681c0.925,0,1.681-0.755,1.681-1.681c0-0.927-0.756-1.681-1.681-1.681
		C34.048,36.018,33.295,36.771,33.295,37.698"/>
	<path clip-path="url(#SVGID_2_)" fill="#455C6B" d="M27.43,37.138c0.31,0,0.561,0.251,0.561,0.561c0,0.309-0.251,0.559-0.561,0.559
		c-0.308,0-0.56-0.25-0.56-0.559C26.87,37.389,27.122,37.138,27.43,37.138 M25.75,37.698c0,0.926,0.754,1.681,1.68,1.681
		c0.927,0,1.682-0.755,1.682-1.681c0-0.927-0.755-1.681-1.682-1.681C26.504,36.018,25.75,36.771,25.75,37.698"/>
	<path clip-path="url(#SVGID_2_)" fill="#455C6B" d="M38.393,19.74l-1.919,11.063H26.87L25.854,19.74H38.393z M26.736,32.649
		L26.736,32.649c0.001,0,0.002,0,0.004,0h10.155c0.249,0,0.47-0.274,0.539-0.669l2.24-12.91c0.047-0.277,0.016-0.577-0.093-0.809
		c-0.104-0.23-0.27-0.367-0.446-0.367h-13.69l-0.4-2.965c-0.058-0.422-0.284-0.721-0.547-0.721h-3.36c-0.31,0-0.56,0.413-0.56,0.922
		s0.25,0.922,0.56,0.922h1.797c0.07,0.526,1.917,14.194,2.023,14.98c-0.596,0.427,0.1,1.403,0.1,2.538
		c0,1.524,0.755,2.766,1.68,2.766h10.158c0.311,0,0.56-0.413,0.56-0.922s-0.249-0.923-0.56-0.923H26.737
		c-0.309,0-0.559-0.414-0.559-0.921C26.179,33.063,26.428,32.65,26.736,32.649"/>
	<path clip-path="url(#SVGID_2_)" fill="none" stroke="#455C6B" stroke-width="2" d="M17.696,39.848V27.358c0,0,0-6.793-6.742-6.793
		H8.257c0,0-6.743,0-6.743,6.793v12.489"/>
	<circle clip-path="url(#SVGID_2_)" fill="none" stroke="#455C6B" stroke-width="2" cx="9.605" cy="10.219" r="7.409"/>
</g>
</svg>
