<?xml version="1.0" encoding="utf-8"?>
<!-- Generator: Adobe Illustrator 16.0.0, SVG Export Plug-In . SVG Version: 6.00 Build 0)  -->
<!DOCTYPE svg PUBLIC "-//W3C//DTD SVG 1.1//EN" "http://www.w3.org/Graphics/SVG/1.1/DTD/svg11.dtd">
<svg version="1.1" id="Capa_1" xmlns="http://www.w3.org/2000/svg" xmlns:xlink="http://www.w3.org/1999/xlink" x="0px" y="0px"
	 width="40px" height="40px" viewBox="0 0 40 40" enable-background="new 0 0 40 40" xml:space="preserve">
<g>
	<g>
		<defs>
			<rect id="SVGID_1_" x="7" y="5.663" width="24.668" height="31.337"/>
		</defs>
		<clipPath id="SVGID_2_">
			<use xlink:href="#SVGID_1_"  overflow="visible"/>
		</clipPath>
		<path clip-path="url(#SVGID_2_)" fill="none" stroke="#455C6B" stroke-width="0.823" d="M11.486,16.827c0,0-2.196,0-2.196,2.196
			v15.37c0,0,0,2.196,2.196,2.196h15.369c0,0,2.196,0,2.196-2.196v-15.37c0,0,0-2.196-2.196-2.196H11.486z"/>
		<path clip-path="url(#SVGID_2_)" fill="#FFFFFF" d="M31.256,18.599c0,0.365-0.351,0.662-0.783,0.662H8.196
			c-0.433,0-0.785-0.297-0.785-0.662v-3.409c0-0.365,0.352-0.662,0.785-0.662h22.276c0.433,0,0.783,0.297,0.783,0.662V18.599z"/>
		<path clip-path="url(#SVGID_2_)" fill="none" stroke="#455C6B" stroke-width="0.823" stroke-miterlimit="10" d="M31.256,18.599
			c0,0.365-0.351,0.662-0.783,0.662H8.196c-0.433,0-0.785-0.297-0.785-0.662v-3.409c0-0.365,0.352-0.662,0.785-0.662h22.276
			c0.433,0,0.783,0.297,0.783,0.662V18.599z"/>
		<path clip-path="url(#SVGID_2_)" fill="#455C6B" d="M19.495,12.95c0,0,0.165-6.096,2.931-5.801
			c4.019,0.428-0.881,6.404-0.881,6.404C19.442,13.914,19.495,12.95,19.495,12.95 M28.128,10.534c0,0-1.927,3.424-4.833,2.327
			c0,0,6.688-5.465,0.444-6.96C18,4.527,18.528,9.546,18.528,9.546s-0.98-5.229-4.69-2.551c-3.602,2.599,0.804,5.424,0.804,5.424
			s-1.64,0.833-2.961-0.47c-1.667-1.644-1.483-3.747-1.483-3.747l-1.37,1.529L7.044,9.929c0,0,2.665,3.482,6.197,4.054
			c3.532,0.573,5.503,0.324,5.503,0.324s0.071-1.416-2.981-2.052c0,0-2.867-2.147-1.534-4.138c1.333-1.99,4.7,4.678,4.881,6.222
			l2.675,0.128c0,0,6.5,0.107,8.892-3.471l-2.104,0.666L28.128,10.534z"/>
	</g>
	<polygon fill="#455C6B" points="19.354,21.538 20.724,25.823 25.223,25.844 21.57,28.471 22.941,32.757 19.314,30.095 
		15.663,32.723 17.073,28.451 13.445,25.789 17.944,25.81 	"/>
	<polygon fill="#455C6B" points="10.553,15.613 10.869,16.6 11.905,16.605 11.064,17.21 11.379,18.196 10.544,17.584 9.703,18.189 
		10.028,17.205 9.192,16.592 10.228,16.597 	"/>
	<polygon fill="#455C6B" points="14.813,15.613 15.129,16.6 16.165,16.605 15.324,17.21 15.639,18.196 14.804,17.584 13.963,18.189 
		14.288,17.205 13.452,16.592 14.488,16.597 	"/>
	<polygon fill="#455C6B" points="19.073,15.613 19.389,16.6 20.425,16.605 19.584,17.21 19.899,18.196 19.064,17.584 18.223,18.189 
		18.548,17.205 17.712,16.592 18.748,16.597 	"/>
	<polygon fill="#455C6B" points="23.332,15.613 23.648,16.6 24.685,16.605 23.844,17.21 24.158,18.196 23.324,17.584 22.482,18.189 
		22.808,17.205 21.972,16.592 23.008,16.597 	"/>
	<polygon fill="#455C6B" points="27.593,15.613 27.909,16.6 28.944,16.605 28.104,17.21 28.419,18.196 27.584,17.584 26.742,18.189 
		27.067,17.205 26.232,16.592 27.268,16.597 	"/>
</g>
</svg>
