<?xml version="1.0" encoding="utf-8"?>
<!-- Generator: Adobe Illustrator 16.0.0, SVG Export Plug-In . SVG Version: 6.00 Build 0)  -->
<!DOCTYPE svg PUBLIC "-//W3C//DTD SVG 1.1//EN" "http://www.w3.org/Graphics/SVG/1.1/DTD/svg11.dtd">
<svg version="1.1" id="Capa_1" xmlns="http://www.w3.org/2000/svg" xmlns:xlink="http://www.w3.org/1999/xlink" x="0px" y="0px"
	 width="595.281px" height="841.891px" viewBox="0 0 595.281 841.891" enable-background="new 0 0 595.281 841.891"
	 xml:space="preserve">
<g>
	<g>
		<defs>
			<rect id="SVGID_1_" x="59" y="211.53" width="477.138" height="419.361"/>
		</defs>
		<clipPath id="SVGID_2_">
			<use xlink:href="#SVGID_1_"  overflow="visible"/>
		</clipPath>
		<path clip-path="url(#SVGID_2_)" fill="#435463" d="M503.626,295.402l-47.926,167.744H223.978l-37.277-167.745L503.626,295.402
			L503.626,295.402z M212.729,491.107h0.021c0.019,0,0.037-0.004,0.056-0.004h253.439c6.24,0,11.725-4.139,13.438-10.139
			l55.916-195.7c1.205-4.22,0.361-8.755-2.277-12.258c-2.645-3.502-6.773-5.563-11.16-5.563h-341.67l-9.992-44.969
			c-1.424-6.396-7.096-10.946-13.648-10.946H72.979c-7.721,0-13.979,6.257-13.979,13.979c0,7.722,6.258,13.979,13.979,13.979h72.66
			c1.769,7.969,47.818,215.195,50.469,227.117c-14.856,6.459-25.279,21.271-25.279,38.479c0,23.12,18.814,41.936,41.936,41.936
			h253.48c7.721,0,13.979-6.258,13.979-13.979c0-7.722-6.258-13.979-13.979-13.979h-253.48c-7.706,0-13.978-6.273-13.978-13.979
			C198.787,497.387,205.037,491.125,212.729,491.107"/>
	</g>
</g>
<g>
	<g>
		<defs>
			<rect id="SVGID_3_" x="59" y="211.53" width="477.138" height="419.361"/>
		</defs>
		<clipPath id="SVGID_4_">
			<use xlink:href="#SVGID_3_"  overflow="visible"/>
		</clipPath>
		<path clip-path="url(#SVGID_4_)" fill="#435463" d="M240.723,574.975c7.707,0,13.979,6.272,13.979,13.979
			c0,7.707-6.272,13.98-13.979,13.98s-13.979-6.273-13.979-13.98C226.744,581.248,233.016,574.975,240.723,574.975 M198.787,588.953
			c0,23.123,18.813,41.938,41.936,41.938s41.936-18.814,41.936-41.938s-18.813-41.936-41.936-41.936S198.787,565.83,198.787,588.953
			"/>
	</g>
	<g>
		<defs>
			<rect id="SVGID_5_" x="59" y="211.53" width="477.138" height="419.361"/>
		</defs>
		<clipPath id="SVGID_6_">
			<use xlink:href="#SVGID_5_"  overflow="visible"/>
		</clipPath>
		<path clip-path="url(#SVGID_6_)" fill="#435463" d="M438.289,574.975c7.707,0,13.979,6.272,13.979,13.979
			c0,7.707-6.271,13.98-13.979,13.98s-13.98-6.273-13.98-13.98C424.308,581.248,430.582,574.975,438.289,574.975 M396.351,588.953
			c0,23.123,18.814,41.938,41.938,41.938c23.125,0,41.936-18.814,41.936-41.938s-18.813-41.936-41.936-41.936
			S396.351,565.83,396.351,588.953"/>
	</g>
</g>
<g>
	<g>
		<defs>
			
				<rect id="SVGID_7_" x="203.603" y="178.009" transform="matrix(0.829 -0.5593 0.5593 0.829 -144.7659 287.9689)" width="389.748" height="405.366"/>
		</defs>
		<clipPath id="SVGID_8_">
			<use xlink:href="#SVGID_7_"  overflow="visible"/>
		</clipPath>
		
			<rect x="267.006" y="482.496" transform="matrix(0.829 -0.5593 0.5593 0.829 -232.2761 242.7499)" clip-path="url(#SVGID_8_)" fill="none" stroke="#435463" stroke-width="11.608" width="27.566" height="37.359"/>
	</g>
</g>
<g>
	<defs>
		<rect id="SVGID_9_" x="223" y="169.014" width="389.738" height="405.354"/>
	</defs>
	<clipPath id="SVGID_10_">
		<use xlink:href="#SVGID_9_"  overflow="visible"/>
	</clipPath>
	<path clip-path="url(#SVGID_10_)" fill="#CD1719" d="M510.855,314.114c39.412,0,71.361-31.95,71.361-71.362
		s-31.949-71.362-71.361-71.362s-71.361,31.95-71.361,71.362S471.443,314.114,510.855,314.114"/>
</g>
<g>
	<circle fill="none" stroke="#FFFFFF" stroke-width="4.75" cx="510.855" cy="242.752" r="71.362"/>
</g>
</svg>
