<?xml version="1.0" encoding="utf-8"?>
<!-- Generator: Adobe Illustrator 16.0.0, SVG Export Plug-In . SVG Version: 6.00 Build 0)  -->
<!DOCTYPE svg PUBLIC "-//W3C//DTD SVG 1.1//EN" "http://www.w3.org/Graphics/SVG/1.1/DTD/svg11.dtd">
<svg version="1.1" id="Capa_1" xmlns="http://www.w3.org/2000/svg" xmlns:xlink="http://www.w3.org/1999/xlink" x="0px" y="0px"
	 width="841.89px" height="595.28px" viewBox="0 0 841.89 595.28" enable-background="new 0 0 841.89 595.28" xml:space="preserve">
<g>
	<defs>
		<rect id="SVGID_1_" x="25" y="37.75" width="765.64" height="519.779"/>
	</defs>
	<clipPath id="SVGID_2_">
		<use xlink:href="#SVGID_1_"  overflow="visible"/>
	</clipPath>
	<path clip-path="url(#SVGID_2_)" fill="#FFFFFF" d="M790.64,477.914c-32.968,20.342-64.769,30.513-95.398,30.513
		c-65.005,0-105.92-42.788-122.755-128.365h176.768v-49.103H566.876c-1.64-20.106-1.524-41.736,0.35-64.885h182.028v-49.102H574.941
		c9.119-39.748,25.077-71.373,47.875-94.872c22.797-23.499,48.807-35.248,78.037-35.248c33.198,0,63.131,9.119,89.786,27.356V57.391
		c-25.252-13.093-53.897-19.641-85.928-19.641c-47.233,0-87.393,15.843-120.476,47.523c-33.089,31.687-55.591,75.582-67.516,131.699
		h-45.945v49.102h38.58c-1.403,14.029-2.104,26.655-2.104,37.878c0,10.758,0.466,19.762,1.402,27.007h-37.879v49.103h42.438
		c19.17,118.315,78.678,177.468,178.521,177.468c34.837,0,67.806-8.648,98.905-25.954V477.914z M354.685,316.229H212.99V174.884
		h-46.646v141.344H25v46.998h141.344v141.343h46.646V363.227h141.694V316.229z"/>
</g>
</svg>
