<?xml version="1.0" encoding="utf-8"?>
<!-- Generator: Adobe Illustrator 16.0.0, SVG Export Plug-In . SVG Version: 6.00 Build 0)  -->
<!DOCTYPE svg PUBLIC "-//W3C//DTD SVG 1.1//EN" "http://www.w3.org/Graphics/SVG/1.1/DTD/svg11.dtd">
<svg version="1.1" id="Capa_1" xmlns="http://www.w3.org/2000/svg" xmlns:xlink="http://www.w3.org/1999/xlink" x="0px" y="0px"
	 width="841.89px" height="595.28px" viewBox="0 0 841.89 595.28" enable-background="new 0 0 841.89 595.28" xml:space="preserve">
<g>
	<defs>
		<rect id="SVGID_1_" x="158.52" y="38.545" width="524.852" height="524.735"/>
	</defs>
	<clipPath id="SVGID_2_">
		<use xlink:href="#SVGID_1_"  overflow="visible"/>
	</clipPath>
	<path clip-path="url(#SVGID_2_)" fill="#FFFFFF" d="M476.576,421.576c-17.644,8.077-36.306,12.19-55.557,12.19
		c-51.742,0-99.131-30.327-120.775-77.312c-30.649-66.564-1.457-145.655,65.1-176.314c17.585-8.106,36.277-12.214,55.525-12.214
		c51.746,0,99.168,30.328,120.81,77.286C572.304,311.826,543.11,390.896,476.576,421.576 M661.398,333.755l-27.908-10.287
		c2.219-20.363,1.488-41.095-2.338-61.746l26.955-12.395c16.827-7.73,24.208-27.77,16.447-44.628l-15.717-34.15
		c-7.764-16.831-27.738-24.235-44.564-16.48l-26.975,12.456c-13.219-16.329-28.531-30.361-45.395-41.94l10.299-27.886
		c6.393-17.383-2.509-36.743-19.89-43.162l-35.287-13.068c-16.829-6.182-36.957,3.091-43.17,19.889l-10.288,27.918
		c-20.361-2.187-41.098-1.463-61.749,2.33l-12.424-26.918c-7.724-16.86-27.735-24.236-44.567-16.476l-34.181,15.717
		c-16.826,7.756-24.204,27.766-16.478,44.597l12.453,26.943c-16.305,13.217-30.356,28.524-41.937,45.443l-27.858-10.328
		c-16.83-6.24-36.951,3.033-43.192,19.86l-13.007,35.323c-3.121,8.431-2.77,17.554,0.995,25.693
		c3.763,8.171,10.497,14.382,18.865,17.441l27.91,10.325c-2.21,20.333-1.486,41.127,2.367,61.748l-26.976,12.395
		c-16.83,7.757-24.212,27.761-16.457,44.561l15.727,34.21c7.755,16.801,27.767,24.215,44.597,16.456l26.944-12.424
		c13.209,16.33,28.522,30.357,45.412,41.909l-10.3,27.879c-3.117,8.428-2.77,17.562,0.996,25.723
		c3.735,8.139,10.467,14.35,18.867,17.471l35.293,13.036c8.43,3.092,17.555,2.747,25.692-0.984
		c8.168-3.764,14.379-10.478,17.472-18.907l10.323-27.91c20.326,2.22,41.099,1.487,61.741-2.328l12.393,26.946
		c7.766,16.831,27.768,24.236,44.598,16.48l34.154-15.747c16.856-7.759,24.209-27.737,16.446-44.598l-12.396-26.945
		c16.309-13.218,30.367-28.5,41.92-45.389l27.88,10.325c8.426,3.091,17.559,2.74,25.722-1.017
		c8.137-3.761,14.35-10.474,17.439-18.873l13.034-35.317C687.712,359.576,678.778,340.178,661.398,333.755"/>
</g>
</svg>
