<?xml version="1.0" encoding="utf-8"?>
<!-- Generator: Adobe Illustrator 16.0.0, SVG Export Plug-In . SVG Version: 6.00 Build 0)  -->
<!DOCTYPE svg PUBLIC "-//W3C//DTD SVG 1.1//EN" "http://www.w3.org/Graphics/SVG/1.1/DTD/svg11.dtd">
<svg version="1.1" id="Capa_1" xmlns="http://www.w3.org/2000/svg" xmlns:xlink="http://www.w3.org/1999/xlink" x="0px" y="0px"
	 width="841.89px" height="595.28px" viewBox="0 0 841.89 595.28" enable-background="new 0 0 841.89 595.28" xml:space="preserve">
<g>
	<defs>
		<rect id="SVGID_1_" x="132.627" y="36.002" width="584.747" height="523.276"/>
	</defs>
	<clipPath id="SVGID_2_">
		<use xlink:href="#SVGID_1_"  overflow="visible"/>
	</clipPath>
	<path clip-path="url(#SVGID_2_)" fill="none" stroke="#FFFFFF" stroke-width="16.102" stroke-miterlimit="10" d="M709.322,201.367
		c0,170.141-284.321,348.41-284.321,348.41s-284.323-178.269-284.323-348.41c0-7.045,0.399-13.879,1.163-20.533
		c17.423-153.958,229.063-199.343,283.16-23.629c54.095-175.714,265.735-130.329,283.163,23.629
		C708.922,187.488,709.322,194.322,709.322,201.367z"/>
</g>
<polygon fill="none" stroke="#FFFFFF" stroke-width="15.483" points="425,158.466 385.755,269.529 268.021,272.529 361.5,344.152 
	327.98,457.06 425,390.31 522.02,457.06 488.5,344.152 581.979,272.529 464.245,269.529 "/>
</svg>
