<?xml version="1.0" encoding="utf-8"?>
<!-- Generator: Adobe Illustrator 16.0.0, SVG Export Plug-In . SVG Version: 6.00 Build 0)  -->
<!DOCTYPE svg PUBLIC "-//W3C//DTD SVG 1.1//EN" "http://www.w3.org/Graphics/SVG/1.1/DTD/svg11.dtd">
<svg version="1.1" id="Capa_1" xmlns="http://www.w3.org/2000/svg" xmlns:xlink="http://www.w3.org/1999/xlink" x="0px" y="0px"
	 width="841.89px" height="595.28px" viewBox="0 0 841.89 595.28" enable-background="new 0 0 841.89 595.28" xml:space="preserve">
<g>
	<defs>
		<rect id="SVGID_1_" x="137.101" y="36.002" width="584.747" height="523.275"/>
	</defs>
	<clipPath id="SVGID_2_">
		<use xlink:href="#SVGID_1_"  overflow="visible"/>
	</clipPath>
	<path clip-path="url(#SVGID_2_)" fill="none" stroke="#C71617" stroke-width="16.102" stroke-miterlimit="10" d="M713.796,201.366
		c0,170.142-284.321,348.409-284.321,348.409S145.151,371.508,145.151,201.366c0-7.045,0.399-13.879,1.163-20.533
		c17.423-153.958,229.063-199.343,283.16-23.629C483.569-18.51,695.21,26.875,712.638,180.833
		C713.396,187.487,713.796,194.321,713.796,201.366z"/>
</g>
<polygon fill="none" stroke="#C71617" stroke-width="15.483" points="429.474,158.465 390.229,269.529 272.495,272.529 
	365.974,344.152 332.454,457.059 429.474,390.309 526.493,457.059 492.974,344.152 586.453,272.529 468.719,269.529 "/>
</svg>
