<?xml version="1.0" encoding="utf-8"?>
<!-- Generator: Adobe Illustrator 16.0.0, SVG Export Plug-In . SVG Version: 6.00 Build 0)  -->
<!DOCTYPE svg PUBLIC "-//W3C//DTD SVG 1.1//EN" "http://www.w3.org/Graphics/SVG/1.1/DTD/svg11.dtd">
<svg version="1.1" id="Capa_1" xmlns="http://www.w3.org/2000/svg" xmlns:xlink="http://www.w3.org/1999/xlink" x="0px" y="0px"
	 width="841.89px" height="595.28px" viewBox="0 0 841.89 595.28" enable-background="new 0 0 841.89 595.28" xml:space="preserve">
<g>
	<defs>
		<rect id="SVGID_1_" x="149" y="37.013" width="525.252" height="525.267"/>
	</defs>
	<clipPath id="SVGID_2_">
		<use xlink:href="#SVGID_1_"  overflow="visible"/>
	</clipPath>
	<path clip-path="url(#SVGID_2_)" fill="#FFFFFF" d="M615.892,37.013h-408.53C174.974,37.013,149,63.272,149,95.375v87.542
		c0,16.042,13.136,29.181,29.179,29.181c16.044,0,29.182-13.139,29.182-29.181v-58.361c0-16.044,13.139-29.181,29.182-29.181
		h350.168c16.042,0,29.181,13.137,29.181,29.181v350.182c0,16.014-13.139,29.181-29.181,29.181H236.543
		c-16.043,0-29.182-13.167-29.182-29.181v-58.362c0-16.072-13.138-29.18-29.182-29.18c-16.043,0-29.179,13.107-29.179,29.18v87.543
		c0,32.087,26.259,58.361,58.361,58.361h408.53c32.086,0,58.361-26.274,58.361-58.361V95.375
		C674.253,63.272,647.978,37.013,615.892,37.013 M376.317,424.811c11.386,11.399,29.778,11.399,41.149,0l104.754-104.754
		c11.371-11.371,11.371-29.75,0-41.136L417.467,174.168c-11.371-11.386-29.764-11.386-41.149,0
		c-11.383,11.369-11.383,29.75,0,41.133l54.856,55.158H178.18c-16.043,0-29.179,13.137-29.179,29.181
		c0,16.028,13.136,29.194,29.179,29.194h252.994l-54.856,54.829C364.935,395.061,365.231,413.753,376.317,424.811"/>
</g>
</svg>
